<svg width="442" height="110" viewBox="0 0 442 110" fill="none" xmlns="http://www.w3.org/2000/svg">
<path d="M5.64002 19.824H18.432V21.216H5.64002V19.824ZM10.488 4.39196H12.264V6.88796H10.488V4.39196ZM1.39202 6.23996H21.528V10.512H19.776V7.67996H3.07202V10.512H1.39202V6.23996ZM5.64002 9.19196H18.072V14.304H5.64002V12.936H16.344V10.584H5.64002V9.19196ZM5.64002 15.864H19.464V22.152H17.712V17.28H5.64002V15.864ZM4.77602 9.19196H6.50402V22.128H4.77602V9.19196ZM6.31202 0.0239592H8.06403V5.35196H6.31202V0.0239592ZM14.592 0.0239592H16.344V5.35196H14.592V0.0239592ZM0.888024 1.67996H21.984V3.28796H0.888024V1.67996ZM27.576 1.34396H46.032V3.02396H27.576V1.34396ZM26.544 1.34396H28.32V8.30396C28.32 9.29596 28.288 10.384 28.224 11.568C28.176 12.736 28.064 13.944 27.888 15.192C27.712 16.424 27.456 17.632 27.12 18.816C26.784 19.984 26.344 21.064 25.8 22.056C25.688 21.944 25.536 21.832 25.344 21.72C25.152 21.608 24.952 21.496 24.744 21.384C24.552 21.272 24.384 21.192 24.24 21.144C24.768 20.2 25.184 19.184 25.488 18.096C25.792 16.992 26.016 15.872 26.16 14.736C26.32 13.584 26.424 12.464 26.472 11.376C26.52 10.272 26.544 9.24796 26.544 8.30396V1.34396ZM32.256 10.344V12.576H42.24V10.344H32.256ZM32.256 6.79196V8.97596H42.24V6.79196H32.256ZM30.48 5.35196H44.064V14.016H30.48V5.35196ZM36.336 13.104H38.088V20.16C38.088 20.624 38.024 20.984 37.896 21.24C37.784 21.512 37.544 21.712 37.176 21.84C36.824 21.968 36.336 22.04 35.712 22.056C35.104 22.088 34.336 22.104 33.408 22.104C33.376 21.88 33.304 21.616 33.192 21.312C33.08 21.024 32.968 20.76 32.856 20.52C33.576 20.536 34.208 20.544 34.752 20.544C35.312 20.544 35.688 20.544 35.88 20.544C36.072 20.528 36.192 20.488 36.24 20.424C36.304 20.376 36.336 20.28 36.336 20.136V13.104ZM36.168 2.66396L38.256 2.87996C38.08 3.50396 37.888 4.11996 37.68 4.72796C37.472 5.33596 37.28 5.86396 37.104 6.31196L35.328 6.04796C35.44 5.72796 35.544 5.36796 35.64 4.96796C35.752 4.56796 35.856 4.16796 35.952 3.76796C36.048 3.35196 36.12 2.98396 36.168 2.66396ZM40.176 16.032L41.544 15.168C42.152 15.616 42.768 16.128 43.392 16.704C44.032 17.28 44.624 17.856 45.168 18.432C45.712 18.992 46.144 19.512 46.464 19.992L44.976 20.976C44.672 20.496 44.256 19.968 43.728 19.392C43.2 18.8 42.624 18.216 42 17.64C41.376 17.048 40.768 16.512 40.176 16.032ZM32.304 15.24L34.032 15.744C33.408 16.752 32.648 17.728 31.752 18.672C30.872 19.616 29.992 20.416 29.112 21.072C29.016 20.976 28.872 20.856 28.68 20.712C28.504 20.584 28.32 20.456 28.128 20.328C27.936 20.2 27.768 20.096 27.624 20.016C28.52 19.44 29.384 18.728 30.216 17.88C31.064 17.016 31.76 16.136 32.304 15.24ZM53.112 -4.05312e-05H54.864V6.91196H53.112V-4.05312e-05ZM53.112 13.344H54.864V22.056H53.112V13.344ZM50.976 10.968V12.984H57.168V10.968H50.976ZM50.976 7.65596V9.62396H57.168V7.65596H50.976ZM49.344 6.23996H58.848V14.376H49.344V6.23996ZM48.648 2.68796H59.52V4.31996H48.648V2.68796ZM61.68 6.91196H68.616V8.54396H61.68V6.91196ZM61.68 1.17596H68.616V2.80796H61.68V1.17596ZM61.632 12.624H68.616V14.28H61.632V12.624ZM48.384 16.32H59.568V17.928H48.384V16.32ZM67.68 1.17596H69.432V19.872C69.432 20.4 69.36 20.808 69.216 21.096C69.088 21.384 68.856 21.608 68.52 21.768C68.184 21.912 67.736 22 67.176 22.032C66.632 22.08 65.92 22.096 65.04 22.08C65.008 21.936 64.96 21.752 64.896 21.528C64.832 21.32 64.76 21.104 64.68 20.88C64.616 20.656 64.536 20.472 64.44 20.328C65.064 20.344 65.632 20.352 66.144 20.352C66.672 20.352 67.024 20.344 67.2 20.328C67.376 20.328 67.496 20.288 67.56 20.208C67.64 20.144 67.68 20.024 67.68 19.848V1.17596ZM60.84 1.17596H62.568V10.056C62.568 11 62.52 12.008 62.424 13.08C62.344 14.152 62.176 15.232 61.92 16.32C61.68 17.392 61.312 18.432 60.816 19.44C60.336 20.432 59.688 21.336 58.872 22.152C58.776 22.04 58.64 21.912 58.464 21.768C58.288 21.64 58.112 21.512 57.936 21.384C57.76 21.256 57.6 21.168 57.456 21.12C58.24 20.336 58.856 19.488 59.304 18.576C59.752 17.664 60.088 16.728 60.312 15.768C60.536 14.792 60.68 13.824 60.744 12.864C60.808 11.888 60.84 10.952 60.84 10.056V1.17596ZM79.968 10.224H94.464V11.712H79.968V10.224ZM82.608 13.416H92.448V14.88H82.608V13.416ZM83.544 10.752L85.08 11.136C84.552 12.496 83.84 13.744 82.944 14.88C82.064 16.016 81.104 16.968 80.064 17.736C79.984 17.64 79.872 17.52 79.728 17.376C79.584 17.232 79.432 17.088 79.272 16.944C79.128 16.8 79 16.68 78.888 16.584C79.912 15.928 80.832 15.096 81.648 14.088C82.48 13.08 83.112 11.968 83.544 10.752ZM85.44 13.944L86.88 14.376C86.24 15.864 85.384 17.24 84.312 18.504C83.24 19.752 82.104 20.8 80.904 21.648C80.824 21.536 80.72 21.4 80.592 21.24C80.464 21.096 80.336 20.952 80.208 20.808C80.08 20.664 79.952 20.544 79.824 20.448C81.008 19.712 82.096 18.776 83.088 17.64C84.08 16.504 84.864 15.272 85.44 13.944ZM88.968 13.992L90.456 14.328C89.976 15.912 89.32 17.368 88.488 18.696C87.656 20.024 86.72 21.136 85.68 22.032C85.6 21.952 85.488 21.84 85.344 21.696C85.2 21.568 85.048 21.44 84.888 21.312C84.744 21.184 84.608 21.08 84.48 21C85.504 20.184 86.4 19.176 87.168 17.976C87.952 16.76 88.552 15.432 88.968 13.992ZM91.968 13.416H93.672C93.672 13.416 93.664 13.512 93.648 13.704C93.632 13.88 93.616 14.024 93.6 14.136C93.504 15.736 93.4 17.04 93.288 18.048C93.176 19.04 93.048 19.8 92.904 20.328C92.76 20.856 92.592 21.232 92.4 21.456C92.224 21.664 92.032 21.808 91.824 21.888C91.616 21.968 91.376 22.024 91.104 22.056C90.864 22.088 90.544 22.104 90.144 22.104C89.76 22.104 89.352 22.088 88.92 22.056C88.904 21.832 88.856 21.576 88.776 21.288C88.696 21 88.6 20.752 88.488 20.544C88.888 20.576 89.256 20.6 89.592 20.616C89.928 20.632 90.176 20.64 90.336 20.64C90.496 20.64 90.624 20.624 90.72 20.592C90.832 20.56 90.928 20.496 91.008 20.4C91.136 20.24 91.256 19.928 91.368 19.464C91.496 18.984 91.608 18.28 91.704 17.352C91.8 16.424 91.888 15.2 91.968 13.68V13.416ZM83.736 5.49596V7.41596H90.768V5.49596H83.736ZM83.736 2.35196V4.19996H90.768V2.35196H83.736ZM82.08 0.98396H92.52V8.78396H82.08V0.98396ZM73.344 1.05596H78.984V2.68796H74.952V22.104H73.344V1.05596ZM78.456 1.05596H78.768L79.032 0.98396L80.208 1.67996C79.968 2.33596 79.712 3.03996 79.44 3.79196C79.184 4.52796 78.912 5.26396 78.624 5.99996C78.352 6.71996 78.08 7.39996 77.808 8.03996C78.688 9.03196 79.264 9.95996 79.536 10.824C79.824 11.672 79.968 12.472 79.968 13.224C79.968 13.864 79.888 14.424 79.728 14.904C79.584 15.384 79.344 15.744 79.008 15.984C78.848 16.096 78.656 16.192 78.432 16.272C78.224 16.336 78 16.384 77.76 16.416C77.264 16.464 76.728 16.48 76.152 16.464C76.136 16.24 76.088 15.976 76.008 15.672C75.944 15.368 75.84 15.104 75.696 14.88C75.968 14.896 76.224 14.904 76.464 14.904C76.704 14.904 76.912 14.904 77.088 14.904C77.408 14.888 77.664 14.816 77.856 14.688C78.048 14.544 78.176 14.328 78.24 14.04C78.32 13.736 78.36 13.408 78.36 13.056C78.36 12.384 78.208 11.656 77.904 10.872C77.616 10.072 77.04 9.19996 76.176 8.25596C76.4 7.71196 76.616 7.13596 76.824 6.52796C77.048 5.90396 77.256 5.29596 77.448 4.70396C77.656 4.09596 77.84 3.51996 78 2.97596C78.176 2.43196 78.328 1.95996 78.456 1.55996V1.05596ZM13.488 37.136H22.44V38.816H13.488V37.136ZM0.864025 31.544H11.472V33.056H0.864025V31.544ZM0.600024 41.048H11.568V42.632H0.600024V41.048ZM0.528024 37.016H11.76V38.552H0.528024V37.016ZM17.976 37.808H19.704V50.984H17.976V37.808ZM5.32802 29.12H7.08002V32.312H5.32802V29.12ZM5.32802 38.288H7.08002V51.056H5.32802V38.288ZM12.624 30.992L14.832 31.664C14.816 31.84 14.656 31.952 14.352 32V39.416C14.352 40.312 14.304 41.272 14.208 42.296C14.128 43.32 13.96 44.36 13.704 45.416C13.448 46.456 13.064 47.472 12.552 48.464C12.04 49.456 11.368 50.368 10.536 51.2C10.456 51.072 10.336 50.928 10.176 50.768C10.032 50.608 9.87203 50.448 9.69602 50.288C9.53603 50.144 9.38403 50.04 9.24003 49.976C10.008 49.224 10.616 48.408 11.064 47.528C11.528 46.648 11.864 45.744 12.072 44.816C12.296 43.888 12.44 42.968 12.504 42.056C12.584 41.128 12.624 40.24 12.624 39.392V30.992ZM20.664 29.288L22.128 30.608C21.376 30.944 20.52 31.264 19.56 31.568C18.6 31.856 17.608 32.12 16.584 32.36C15.576 32.584 14.592 32.784 13.632 32.96C13.584 32.768 13.504 32.536 13.392 32.264C13.28 31.976 13.168 31.744 13.056 31.568C13.952 31.376 14.872 31.16 15.816 30.92C16.776 30.68 17.68 30.424 18.528 30.152C19.376 29.864 20.088 29.576 20.664 29.288ZM6.88802 43.064C7.08002 43.192 7.36002 43.408 7.72802 43.712C8.11202 44 8.52003 44.32 8.95203 44.672C9.38402 45.024 9.77602 45.352 10.128 45.656C10.48 45.944 10.736 46.152 10.896 46.28L9.81602 47.624C9.62402 47.4 9.36002 47.12 9.02402 46.784C8.68802 46.448 8.32002 46.096 7.92002 45.728C7.53603 45.344 7.16003 44.992 6.79203 44.672C6.44002 44.336 6.15202 44.08 5.92802 43.904L6.88802 43.064ZM2.30402 33.512L3.74402 33.176C3.98402 33.704 4.20002 34.288 4.39202 34.928C4.58402 35.568 4.71202 36.12 4.77602 36.584L3.24002 36.992C3.20802 36.512 3.10402 35.952 2.92802 35.312C2.75202 34.656 2.54402 34.056 2.30402 33.512ZM8.47202 33.128L10.104 33.488C9.88002 34.096 9.64802 34.712 9.40803 35.336C9.16802 35.96 8.93602 36.496 8.71202 36.944L7.24802 36.584C7.39202 36.264 7.53603 35.904 7.68003 35.504C7.84002 35.104 7.99202 34.696 8.13602 34.28C8.28003 33.848 8.39202 33.464 8.47202 33.128ZM5.32802 41.864L6.62403 42.368C6.22403 43.232 5.72802 44.112 5.13602 45.008C4.54402 45.888 3.91202 46.712 3.24002 47.48C2.58402 48.232 1.93602 48.856 1.29602 49.352C1.15202 49.144 0.960024 48.92 0.720024 48.68C0.496024 48.424 0.280024 48.216 0.0720244 48.056C0.728025 47.64 1.38402 47.096 2.04002 46.424C2.71202 45.752 3.33602 45.016 3.91202 44.216C4.48802 43.416 4.96002 42.632 5.32802 41.864ZM32.208 30.68L33.888 31.208V39.176H32.208V30.68ZM33.168 34.304H37.584V35.768H33.168V34.304ZM39.384 34.304H44.184V35.768H39.384V34.304ZM33.816 41.576H44.928V43.16H33.816V41.576ZM44.472 41.576H46.2C46.2 41.576 46.192 41.624 46.176 41.72C46.176 41.8 46.176 41.904 46.176 42.032C46.176 42.16 46.168 42.264 46.152 42.344C46.04 44.12 45.928 45.56 45.816 46.664C45.704 47.768 45.568 48.608 45.408 49.184C45.264 49.76 45.08 50.176 44.856 50.432C44.648 50.656 44.424 50.808 44.184 50.888C43.944 50.984 43.656 51.048 43.32 51.08C43.032 51.112 42.624 51.12 42.096 51.104C41.568 51.104 41.008 51.088 40.416 51.056C40.4 50.832 40.352 50.576 40.272 50.288C40.192 50 40.088 49.744 39.96 49.52C40.52 49.568 41.04 49.6 41.52 49.616C42.016 49.632 42.368 49.64 42.576 49.64C42.768 49.64 42.928 49.624 43.056 49.592C43.2 49.56 43.312 49.488 43.392 49.376C43.568 49.216 43.712 48.872 43.824 48.344C43.952 47.816 44.064 47.032 44.16 45.992C44.272 44.936 44.376 43.56 44.472 41.864V41.576ZM34.944 38.984L36.624 39.488C35.968 40.8 35.136 42.048 34.128 43.232C33.136 44.4 32.104 45.384 31.032 46.184C30.952 46.056 30.832 45.912 30.672 45.752C30.512 45.592 30.344 45.432 30.168 45.272C30.008 45.112 29.864 44.976 29.736 44.864C30.776 44.176 31.76 43.312 32.688 42.272C33.616 41.232 34.368 40.136 34.944 38.984ZM32.208 38.216H43.512V32H39.264V30.488H45.216V39.728H32.208V38.216ZM37.056 29.024L38.28 30.2C37.544 30.648 36.736 31.072 35.856 31.472C34.992 31.856 34.2 32.176 33.48 32.432L32.496 31.376C32.96 31.184 33.472 30.952 34.032 30.68C34.592 30.408 35.136 30.128 35.664 29.84C36.208 29.536 36.672 29.264 37.056 29.024ZM32.784 44.912L34.176 45.224C34.048 46.216 33.824 47.176 33.504 48.104C33.184 49.032 32.672 49.792 31.968 50.384L30.744 49.544C31.352 49.032 31.808 48.36 32.112 47.528C32.432 46.68 32.656 45.808 32.784 44.912ZM35.16 45.32L36.456 45.128C36.632 45.816 36.776 46.568 36.888 47.384C37.016 48.2 37.072 48.896 37.056 49.472L35.712 49.688C35.728 49.096 35.688 48.392 35.592 47.576C35.496 46.76 35.352 46.008 35.16 45.32ZM37.704 45.008L38.832 44.624C39.2 45.152 39.536 45.752 39.84 46.424C40.16 47.08 40.4 47.656 40.56 48.152L39.336 48.608C39.208 48.112 38.984 47.528 38.664 46.856C38.36 46.184 38.04 45.568 37.704 45.008ZM40.248 44.576L41.184 43.928C41.648 44.344 42.096 44.808 42.528 45.32C42.976 45.832 43.312 46.28 43.536 46.664L42.552 47.384C42.328 46.984 42 46.52 41.568 45.992C41.136 45.448 40.696 44.976 40.248 44.576ZM25.584 30.536L26.592 29.216C27.104 29.424 27.624 29.672 28.152 29.96C28.696 30.248 29.208 30.552 29.688 30.872C30.168 31.176 30.552 31.464 30.84 31.736L29.808 33.224C29.52 32.936 29.136 32.632 28.656 32.312C28.176 31.976 27.672 31.656 27.144 31.352C26.616 31.032 26.096 30.76 25.584 30.536ZM24.312 37.04L25.296 35.672C25.792 35.864 26.312 36.096 26.856 36.368C27.416 36.64 27.936 36.92 28.416 37.208C28.912 37.496 29.312 37.768 29.616 38.024L28.56 39.536C28.272 39.264 27.888 38.976 27.408 38.672C26.928 38.368 26.416 38.072 25.872 37.784C25.344 37.496 24.824 37.248 24.312 37.04ZM24.912 49.712C25.312 49.056 25.736 48.288 26.184 47.408C26.648 46.512 27.12 45.568 27.6 44.576C28.08 43.584 28.512 42.624 28.896 41.696L30.336 42.728C29.984 43.608 29.592 44.52 29.16 45.464C28.728 46.408 28.288 47.336 27.84 48.248C27.392 49.144 26.96 49.976 26.544 50.744L24.912 49.712ZM55.944 34.448V36.368H65.592V34.448H55.944ZM55.944 37.64V39.584H65.592V37.64H55.944ZM55.944 31.28V33.176H65.592V31.28H55.944ZM54.24 29.96H67.368V40.928H54.24V29.96ZM62.952 46.232L64.44 45.248C65.08 45.68 65.752 46.168 66.456 46.712C67.176 47.24 67.864 47.768 68.52 48.296C69.192 48.808 69.736 49.28 70.152 49.712L68.592 50.84C68.192 50.424 67.672 49.944 67.032 49.4C66.392 48.872 65.712 48.328 64.992 47.768C64.288 47.208 63.608 46.696 62.952 46.232ZM58.464 43.4H60.36V51.104H58.464V43.4ZM51.072 42.704H70.128V44.312H51.072V42.704ZM49.992 31.16H51.792V44.984H49.992V31.16ZM54 45.32L55.872 46.016C55.376 46.592 54.8 47.176 54.144 47.768C53.488 48.36 52.808 48.912 52.104 49.424C51.4 49.952 50.704 50.416 50.016 50.816C49.904 50.688 49.76 50.544 49.584 50.384C49.424 50.24 49.256 50.096 49.08 49.952C48.904 49.808 48.744 49.688 48.6 49.592C49.256 49.24 49.92 48.832 50.592 48.368C51.28 47.888 51.92 47.384 52.512 46.856C53.12 46.312 53.616 45.8 54 45.32ZM75 47.816H91.944V49.592H75V47.816ZM82.344 29.144H84.216V48.848H82.344V29.144ZM74.112 41.144H75.912V51.104H74.112V41.144ZM90.984 41.144H92.832V51.056H90.984V41.144ZM75.024 31.304H76.824V37.856H90V31.304H91.872V39.584H75.024V31.304ZM101.592 35.192H112.992V36.608H101.592V35.192ZM101.592 38.816H112.992V40.208H101.592V38.816ZM112.176 31.4H114.024V48.608C114.024 49.232 113.936 49.712 113.76 50.048C113.6 50.384 113.296 50.632 112.848 50.792C112.4 50.936 111.776 51.024 110.976 51.056C110.176 51.104 109.16 51.12 107.928 51.104C107.912 50.928 107.864 50.728 107.784 50.504C107.704 50.28 107.624 50.048 107.544 49.808C107.464 49.584 107.368 49.384 107.256 49.208C107.896 49.224 108.504 49.232 109.08 49.232C109.656 49.248 110.16 49.256 110.592 49.256C111.024 49.256 111.328 49.256 111.504 49.256C111.76 49.24 111.936 49.184 112.032 49.088C112.128 48.992 112.176 48.824 112.176 48.584V31.4ZM96.696 43.016C98.04 42.952 99.6 42.872 101.376 42.776C103.152 42.664 105.048 42.544 107.064 42.416C109.08 42.288 111.08 42.16 113.064 42.032L113.016 43.568C111.112 43.728 109.192 43.888 107.256 44.048C105.32 44.192 103.472 44.336 101.712 44.48C99.952 44.608 98.376 44.72 96.984 44.816L96.696 43.016ZM116.28 36.752L117.984 37.592C116.464 39.816 114.656 41.776 112.56 43.472C110.464 45.152 108.152 46.608 105.624 47.84C103.112 49.072 100.464 50.096 97.68 50.912C97.616 50.768 97.512 50.592 97.368 50.384C97.224 50.176 97.072 49.968 96.912 49.76C96.768 49.552 96.624 49.384 96.48 49.256C99.28 48.52 101.92 47.576 104.4 46.424C106.896 45.256 109.152 43.872 111.168 42.272C113.2 40.656 114.904 38.816 116.28 36.752ZM106.368 28.952L108.552 29.288C108.232 29.912 107.896 30.536 107.544 31.16C107.192 31.768 106.856 32.28 106.536 32.696L104.952 32.312C105.208 31.832 105.472 31.28 105.744 30.656C106.016 30.016 106.224 29.448 106.368 28.952ZM100.464 31.4H112.776V32.984H102.264V43.712H100.464V31.4ZM124.056 43.328C124.744 43.328 125.36 43.496 125.904 43.832C126.448 44.152 126.888 44.592 127.224 45.152C127.56 45.696 127.728 46.304 127.728 46.976C127.728 47.648 127.56 48.264 127.224 48.824C126.888 49.368 126.448 49.808 125.904 50.144C125.36 50.48 124.744 50.648 124.056 50.648C123.384 50.648 122.768 50.48 122.208 50.144C121.664 49.808 121.224 49.368 120.888 48.824C120.568 48.264 120.408 47.648 120.408 46.976C120.408 46.304 120.568 45.696 120.888 45.152C121.224 44.592 121.672 44.152 122.232 43.832C122.792 43.496 123.4 43.328 124.056 43.328ZM124.056 49.424C124.744 49.424 125.32 49.192 125.784 48.728C126.264 48.248 126.504 47.664 126.504 46.976C126.504 46.544 126.392 46.144 126.168 45.776C125.96 45.408 125.672 45.112 125.304 44.888C124.936 44.664 124.52 44.552 124.056 44.552C123.624 44.552 123.224 44.664 122.856 44.888C122.488 45.112 122.192 45.408 121.968 45.776C121.744 46.144 121.632 46.544 121.632 46.976C121.632 47.424 121.744 47.84 121.968 48.224C122.192 48.592 122.488 48.888 122.856 49.112C123.224 49.32 123.624 49.424 124.056 49.424ZM159.048 29.048H160.728C160.712 30.984 160.68 32.864 160.632 34.688C160.584 36.496 160.456 38.216 160.248 39.848C160.04 41.464 159.688 42.976 159.192 44.384C158.712 45.776 158.032 47.04 157.152 48.176C156.288 49.312 155.168 50.296 153.792 51.128C153.664 50.92 153.472 50.688 153.216 50.432C152.976 50.176 152.76 49.984 152.568 49.856C153.88 49.088 154.944 48.176 155.76 47.12C156.592 46.064 157.232 44.88 157.68 43.568C158.128 42.24 158.448 40.808 158.64 39.272C158.832 37.736 158.944 36.112 158.976 34.4C159.024 32.672 159.048 30.888 159.048 29.048ZM160.368 37.496C160.624 39.384 161.008 41.128 161.52 42.728C162.032 44.312 162.704 45.696 163.536 46.88C164.368 48.048 165.416 48.968 166.68 49.64C166.504 49.784 166.296 50 166.056 50.288C165.832 50.576 165.656 50.832 165.528 51.056C164.2 50.256 163.096 49.224 162.216 47.96C161.336 46.68 160.632 45.184 160.104 43.472C159.576 41.744 159.16 39.832 158.856 37.736L160.368 37.496ZM164.184 34.304L165.96 34.808C165.688 35.512 165.392 36.248 165.072 37.016C164.752 37.784 164.432 38.528 164.112 39.248C163.792 39.952 163.488 40.576 163.2 41.12L161.688 40.64C161.976 40.064 162.28 39.416 162.6 38.696C162.92 37.96 163.216 37.208 163.488 36.44C163.776 35.656 164.008 34.944 164.184 34.304ZM155.496 34.352L157.056 34.592C156.992 35.36 156.888 36.152 156.744 36.968C156.6 37.768 156.4 38.536 156.144 39.272C155.904 40.008 155.592 40.648 155.208 41.192L153.672 40.544C154.024 40.064 154.32 39.488 154.56 38.816C154.8 38.128 155 37.4 155.16 36.632C155.32 35.848 155.432 35.088 155.496 34.352ZM148.728 30.872H150.504V51.104H148.728V30.872ZM144.576 35.912H154.08V37.592H144.576V35.912ZM148.728 36.632L149.928 37.136C149.672 37.984 149.36 38.872 148.992 39.8C148.64 40.712 148.24 41.616 147.792 42.512C147.36 43.392 146.904 44.224 146.424 45.008C145.96 45.776 145.488 46.432 145.008 46.976C144.944 46.8 144.856 46.608 144.744 46.4C144.632 46.192 144.512 45.992 144.384 45.8C144.272 45.592 144.16 45.416 144.048 45.272C144.656 44.616 145.256 43.808 145.848 42.848C146.456 41.872 147.016 40.84 147.528 39.752C148.04 38.664 148.44 37.624 148.728 36.632ZM152.448 29.24L153.696 30.632C152.944 30.92 152.088 31.192 151.128 31.448C150.168 31.688 149.176 31.904 148.152 32.096C147.128 32.288 146.144 32.448 145.2 32.576C145.168 32.368 145.096 32.136 144.984 31.88C144.872 31.608 144.768 31.376 144.672 31.184C145.6 31.024 146.544 30.848 147.504 30.656C148.48 30.448 149.392 30.224 150.24 29.984C151.104 29.744 151.84 29.496 152.448 29.24ZM150.48 38.048C150.608 38.208 150.808 38.456 151.08 38.792C151.368 39.128 151.672 39.504 151.992 39.92C152.328 40.32 152.624 40.696 152.88 41.048C153.152 41.4 153.344 41.648 153.456 41.792L152.4 43.256C152.272 43 152.088 42.672 151.848 42.272C151.608 41.856 151.344 41.424 151.056 40.976C150.784 40.512 150.52 40.088 150.264 39.704C150.008 39.32 149.8 39.024 149.64 38.816L150.48 38.048ZM170.688 47.6H188.208V49.424H170.688V47.6ZM170.736 39.032H188.208V40.832H170.736V39.032ZM169.728 30.68H189.168V50.888H187.32V32.432H171.504V50.888H169.728V30.68ZM178.344 31.496H180.168V48.536H178.344V31.496ZM192.912 32.744H213.936V34.472H192.912V32.744ZM200.352 40.352H213V42.032H200.352V40.352ZM199.392 48.848H213.912V50.528H199.392V48.848ZM205.752 35.72H207.552V49.76H205.752V35.72ZM200.784 29.024L202.656 29.48C202.096 31.304 201.384 33.112 200.52 34.904C199.672 36.696 198.648 38.376 197.448 39.944C196.248 41.496 194.848 42.84 193.248 43.976C193.184 43.816 193.096 43.64 192.984 43.448C192.872 43.24 192.752 43.04 192.624 42.848C192.512 42.64 192.408 42.464 192.312 42.32C193.4 41.568 194.384 40.688 195.264 39.68C196.16 38.656 196.96 37.56 197.664 36.392C198.368 35.208 198.976 33.992 199.488 32.744C200.016 31.496 200.448 30.256 200.784 29.024ZM196.032 38.912H197.832V51.008H196.032V38.912ZM223.536 33.8H238.152V35.528H223.536V33.8ZM224.352 40.808H237.432V42.512H224.352V40.808ZM222.936 48.56H238.512V50.264H222.936V48.56ZM229.92 34.304H231.72V49.592H229.92V34.304ZM226.776 30.224L227.976 28.976C228.584 29.312 229.224 29.696 229.896 30.128C230.568 30.544 231.208 30.968 231.816 31.4C232.424 31.832 232.92 32.232 233.304 32.6L232.032 34.04C231.68 33.672 231.208 33.264 230.616 32.816C230.024 32.352 229.392 31.896 228.72 31.448C228.048 31 227.4 30.592 226.776 30.224ZM222.048 29.096L223.728 29.624C223.184 30.968 222.544 32.296 221.808 33.608C221.088 34.92 220.304 36.152 219.456 37.304C218.624 38.456 217.768 39.48 216.888 40.376C216.824 40.232 216.728 40.048 216.6 39.824C216.488 39.6 216.368 39.376 216.24 39.152C216.112 38.928 215.992 38.744 215.88 38.6C216.68 37.832 217.464 36.944 218.232 35.936C219 34.912 219.712 33.824 220.368 32.672C221.024 31.504 221.584 30.312 222.048 29.096ZM219.552 35.288L221.232 33.584L221.28 33.608V51.032H219.552V35.288ZM252.936 32.792C252.776 34.04 252.568 35.344 252.312 36.704C252.072 38.064 251.76 39.384 251.376 40.664C250.896 42.312 250.36 43.688 249.768 44.792C249.192 45.896 248.568 46.728 247.896 47.288C247.224 47.848 246.52 48.128 245.784 48.128C245.08 48.128 244.4 47.872 243.744 47.36C243.088 46.848 242.552 46.112 242.136 45.152C241.72 44.176 241.512 43.032 241.512 41.72C241.512 40.408 241.776 39.168 242.304 38C242.848 36.832 243.592 35.8 244.536 34.904C245.496 33.992 246.616 33.272 247.896 32.744C249.176 32.216 250.544 31.952 252 31.952C253.408 31.952 254.672 32.184 255.792 32.648C256.928 33.112 257.896 33.752 258.696 34.568C259.496 35.368 260.112 36.304 260.544 37.376C260.976 38.432 261.192 39.568 261.192 40.784C261.192 42.464 260.832 43.944 260.112 45.224C259.408 46.504 258.384 47.544 257.04 48.344C255.712 49.144 254.096 49.672 252.192 49.928L251.064 48.152C251.448 48.104 251.816 48.056 252.168 48.008C252.52 47.96 252.84 47.904 253.128 47.84C253.896 47.664 254.64 47.392 255.36 47.024C256.096 46.64 256.752 46.16 257.328 45.584C257.904 44.992 258.36 44.296 258.696 43.496C259.048 42.68 259.224 41.752 259.224 40.712C259.224 39.736 259.064 38.832 258.744 38C258.424 37.152 257.952 36.408 257.328 35.768C256.704 35.128 255.944 34.624 255.048 34.256C254.152 33.888 253.128 33.704 251.976 33.704C250.664 33.704 249.472 33.944 248.4 34.424C247.344 34.904 246.44 35.536 245.688 36.32C244.952 37.088 244.384 37.936 243.984 38.864C243.584 39.776 243.384 40.672 243.384 41.552C243.384 42.56 243.512 43.392 243.768 44.048C244.04 44.688 244.36 45.16 244.728 45.464C245.112 45.768 245.488 45.92 245.856 45.92C246.24 45.92 246.632 45.736 247.032 45.368C247.432 44.984 247.84 44.376 248.256 43.544C248.672 42.696 249.08 41.6 249.48 40.256C249.832 39.104 250.128 37.88 250.368 36.584C250.624 35.288 250.808 34.016 250.92 32.768L252.936 32.792ZM264.456 49.184V47.888C266.296 46.272 267.808 44.8 268.992 43.472C270.192 42.144 271.08 40.912 271.656 39.776C272.232 38.624 272.52 37.544 272.52 36.536C272.52 35.864 272.4 35.264 272.16 34.736C271.936 34.208 271.584 33.8 271.104 33.512C270.624 33.208 270.016 33.056 269.28 33.056C268.56 33.056 267.888 33.248 267.264 33.632C266.656 34.016 266.112 34.504 265.632 35.096L264.36 33.848C265.064 33.064 265.824 32.44 266.64 31.976C267.456 31.512 268.424 31.28 269.544 31.28C270.6 31.28 271.504 31.496 272.256 31.928C273.024 32.344 273.616 32.944 274.032 33.728C274.464 34.496 274.68 35.4 274.68 36.44C274.68 37.608 274.384 38.792 273.792 39.992C273.216 41.192 272.408 42.416 271.368 43.664C270.344 44.896 269.144 46.16 267.768 47.456C268.232 47.424 268.712 47.392 269.208 47.36C269.72 47.312 270.2 47.288 270.648 47.288H275.52V49.184H264.456ZM278.825 49.184V47.36H282.761V34.232H279.617V32.84C280.401 32.696 281.081 32.52 281.657 32.312C282.249 32.104 282.785 31.864 283.265 31.592H284.945V47.36H288.473V49.184H278.825ZM303.897 35.264H305.553C305.601 36.816 305.753 38.304 306.009 39.728C306.281 41.136 306.609 42.44 306.993 43.64C307.393 44.84 307.825 45.888 308.289 46.784C308.753 47.664 309.217 48.352 309.681 48.848C310.145 49.328 310.569 49.568 310.953 49.568C311.225 49.568 311.417 49.288 311.529 48.728C311.657 48.168 311.753 47.28 311.817 46.064C311.993 46.224 312.209 46.384 312.465 46.544C312.721 46.688 312.961 46.8 313.185 46.88C313.089 47.984 312.945 48.848 312.753 49.472C312.577 50.096 312.329 50.536 312.009 50.792C311.705 51.048 311.313 51.176 310.833 51.176C310.193 51.176 309.553 50.888 308.913 50.312C308.289 49.752 307.689 48.968 307.113 47.96C306.537 46.952 306.017 45.784 305.553 44.456C305.105 43.112 304.729 41.664 304.425 40.112C304.137 38.544 303.961 36.928 303.897 35.264ZM306.921 36.176L307.953 35.36C308.497 35.664 309.057 36.024 309.633 36.44C310.209 36.856 310.657 37.224 310.977 37.544L309.897 38.48C309.593 38.144 309.153 37.76 308.577 37.328C308.017 36.896 307.465 36.512 306.921 36.176ZM301.209 44.072L302.409 43.616C302.793 44.176 303.153 44.8 303.489 45.488C303.841 46.16 304.081 46.736 304.209 47.216L302.937 47.768C302.793 47.256 302.561 46.656 302.241 45.968C301.921 45.28 301.577 44.648 301.209 44.072ZM309.753 40.256L311.361 40.616C310.577 42.968 309.481 45.024 308.073 46.784C306.665 48.544 305.033 49.992 303.177 51.128C303.097 51.016 302.985 50.88 302.841 50.72C302.697 50.56 302.545 50.4 302.385 50.24C302.225 50.08 302.081 49.952 301.953 49.856C303.793 48.864 305.377 47.552 306.705 45.92C308.049 44.288 309.065 42.4 309.753 40.256ZM296.385 43.616L297.777 43.904C297.537 44.752 297.217 45.592 296.817 46.424C296.433 47.24 296.025 47.936 295.593 48.512C295.465 48.4 295.273 48.272 295.017 48.128C294.777 47.968 294.577 47.84 294.417 47.744C294.849 47.2 295.233 46.568 295.569 45.848C295.905 45.112 296.177 44.368 296.385 43.616ZM293.817 37.76H312.513V39.248H293.817V37.76ZM295.569 41.024H303.537V42.44H295.569V41.024ZM291.489 34.04H312.633V35.552H291.489V34.04ZM302.457 30.704H310.329V32.072H302.457V30.704ZM292.857 37.76H294.513V41.84C294.513 42.528 294.481 43.28 294.417 44.096C294.369 44.896 294.257 45.72 294.081 46.568C293.921 47.4 293.681 48.208 293.361 48.992C293.057 49.776 292.665 50.496 292.185 51.152C292.089 51.04 291.953 50.912 291.777 50.768C291.617 50.64 291.449 50.512 291.273 50.384C291.097 50.256 290.937 50.16 290.793 50.096C291.417 49.28 291.873 48.392 292.161 47.432C292.449 46.456 292.633 45.488 292.713 44.528C292.809 43.552 292.857 42.656 292.857 41.84V37.76ZM301.473 29.024H303.249V34.784H301.473V29.024ZM295.377 30.104H297.081V34.952H295.377V30.104ZM298.809 41.888H300.321V49.088C300.321 49.472 300.281 49.776 300.201 50C300.121 50.224 299.945 50.4 299.673 50.528C299.417 50.64 299.089 50.712 298.689 50.744C298.289 50.776 297.825 50.792 297.297 50.792C297.249 50.568 297.177 50.32 297.081 50.048C296.985 49.792 296.889 49.56 296.793 49.352C297.209 49.368 297.569 49.376 297.873 49.376C298.193 49.376 298.409 49.368 298.521 49.352C298.649 49.352 298.729 49.328 298.761 49.28C298.793 49.248 298.809 49.184 298.809 49.088V41.888ZM15.048 58.048H16.728C16.712 59.984 16.68 61.864 16.632 63.688C16.584 65.496 16.456 67.216 16.248 68.848C16.04 70.464 15.688 71.976 15.192 73.384C14.712 74.776 14.032 76.04 13.152 77.176C12.288 78.312 11.168 79.296 9.79203 80.128C9.66402 79.92 9.47202 79.688 9.21602 79.432C8.97602 79.176 8.76003 78.984 8.56803 78.856C9.88002 78.088 10.944 77.176 11.76 76.12C12.592 75.064 13.232 73.88 13.68 72.568C14.128 71.24 14.448 69.808 14.64 68.272C14.832 66.736 14.944 65.112 14.976 63.4C15.024 61.672 15.048 59.888 15.048 58.048ZM16.368 66.496C16.624 68.384 17.008 70.128 17.52 71.728C18.032 73.312 18.704 74.696 19.536 75.88C20.368 77.048 21.416 77.968 22.68 78.64C22.504 78.784 22.296 79 22.056 79.288C21.832 79.576 21.656 79.832 21.528 80.056C20.2 79.256 19.096 78.224 18.216 76.96C17.336 75.68 16.632 74.184 16.104 72.472C15.576 70.744 15.16 68.832 14.856 66.736L16.368 66.496ZM20.184 63.304L21.96 63.808C21.688 64.512 21.392 65.248 21.072 66.016C20.752 66.784 20.432 67.528 20.112 68.248C19.792 68.952 19.488 69.576 19.2 70.12L17.688 69.64C17.976 69.064 18.28 68.416 18.6 67.696C18.92 66.96 19.216 66.208 19.488 65.44C19.776 64.656 20.008 63.944 20.184 63.304ZM11.496 63.352L13.056 63.592C12.992 64.36 12.888 65.152 12.744 65.968C12.6 66.768 12.4 67.536 12.144 68.272C11.904 69.008 11.592 69.648 11.208 70.192L9.67203 69.544C10.024 69.064 10.32 68.488 10.56 67.816C10.8 67.128 11 66.4 11.16 65.632C11.32 64.848 11.432 64.088 11.496 63.352ZM4.72802 59.872H6.50402V80.104H4.72802V59.872ZM0.576024 64.912H10.08V66.592H0.576024V64.912ZM4.72802 65.632L5.92802 66.136C5.67202 66.984 5.36002 67.872 4.99202 68.8C4.64002 69.712 4.24002 70.616 3.79202 71.512C3.36002 72.392 2.90402 73.224 2.42402 74.008C1.96002 74.776 1.48802 75.432 1.00802 75.976C0.944024 75.8 0.856024 75.608 0.744024 75.4C0.632024 75.192 0.512024 74.992 0.384024 74.8C0.272024 74.592 0.160024 74.416 0.0480244 74.272C0.656025 73.616 1.25602 72.808 1.84802 71.848C2.45602 70.872 3.01602 69.84 3.52802 68.752C4.04002 67.664 4.44002 66.624 4.72802 65.632ZM8.44802 58.24L9.69602 59.632C8.94403 59.92 8.08803 60.192 7.12803 60.448C6.16803 60.688 5.17602 60.904 4.15202 61.096C3.12802 61.288 2.14402 61.448 1.20002 61.576C1.16802 61.368 1.09602 61.136 0.984024 60.88C0.872024 60.608 0.768025 60.376 0.672024 60.184C1.60002 60.024 2.54402 59.848 3.50402 59.656C4.48002 59.448 5.39202 59.224 6.24003 58.984C7.10402 58.744 7.84002 58.496 8.44802 58.24ZM6.48002 67.048C6.60802 67.208 6.80802 67.456 7.08002 67.792C7.36803 68.128 7.67202 68.504 7.99202 68.92C8.32802 69.32 8.62402 69.696 8.88002 70.048C9.15202 70.4 9.34403 70.648 9.45603 70.792L8.40003 72.256C8.27202 72 8.08802 71.672 7.84803 71.272C7.60802 70.856 7.34402 70.424 7.05602 69.976C6.78402 69.512 6.52002 69.088 6.26402 68.704C6.00802 68.32 5.80002 68.024 5.64002 67.816L6.48002 67.048ZM26.688 76.6H44.208V78.424H26.688V76.6ZM26.736 68.032H44.208V69.832H26.736V68.032ZM25.728 59.68H45.168V79.888H43.32V61.432H27.504V79.888H25.728V59.68ZM34.344 60.496H36.168V77.536H34.344V60.496ZM48.888 64.912H70.008V66.76H48.888V64.912ZM60.576 65.656C61.12 67.592 61.832 69.4 62.712 71.08C63.608 72.744 64.696 74.2 65.976 75.448C67.272 76.696 68.744 77.672 70.392 78.376C70.248 78.504 70.088 78.664 69.912 78.856C69.752 79.064 69.592 79.272 69.432 79.48C69.272 79.688 69.144 79.88 69.048 80.056C67.32 79.224 65.792 78.128 64.464 76.768C63.152 75.408 62.032 73.824 61.104 72.016C60.176 70.208 59.408 68.232 58.8 66.088L60.576 65.656ZM58.464 58.048H60.408C60.408 59.088 60.376 60.248 60.312 61.528C60.264 62.792 60.144 64.112 59.952 65.488C59.76 66.848 59.44 68.224 58.992 69.616C58.56 70.992 57.952 72.328 57.168 73.624C56.4 74.904 55.416 76.096 54.216 77.2C53.016 78.304 51.544 79.256 49.8 80.056C49.656 79.816 49.448 79.552 49.176 79.264C48.92 78.992 48.672 78.76 48.432 78.568C50.128 77.832 51.552 76.952 52.704 75.928C53.872 74.904 54.824 73.784 55.56 72.568C56.296 71.352 56.864 70.096 57.264 68.8C57.664 67.504 57.944 66.216 58.104 64.936C58.264 63.64 58.36 62.408 58.392 61.24C58.44 60.072 58.464 59.008 58.464 58.048ZM76.872 66.136H88.776V67.72H76.872V66.136ZM72.84 71.584H94.08V73.288H72.84V71.584ZM82.512 69.856H84.336V77.944C84.336 78.488 84.248 78.904 84.072 79.192C83.912 79.48 83.608 79.696 83.16 79.84C82.728 79.968 82.152 80.048 81.432 80.08C80.728 80.112 79.824 80.128 78.72 80.128C78.656 79.872 78.544 79.576 78.384 79.24C78.24 78.904 78.088 78.616 77.928 78.376C78.552 78.392 79.136 78.4 79.68 78.4C80.224 78.416 80.688 78.424 81.072 78.424C81.472 78.424 81.752 78.416 81.912 78.4C82.152 78.384 82.312 78.336 82.392 78.256C82.472 78.192 82.512 78.08 82.512 77.92V69.856ZM88.224 66.136H88.656L89.04 66.04L90.216 66.904C89.672 67.448 89.04 67.992 88.32 68.536C87.616 69.064 86.872 69.56 86.088 70.024C85.304 70.488 84.536 70.888 83.784 71.224C83.656 71.048 83.488 70.864 83.28 70.672C83.088 70.464 82.92 70.296 82.776 70.168C83.448 69.864 84.128 69.504 84.816 69.088C85.52 68.672 86.168 68.24 86.76 67.792C87.352 67.328 87.84 66.888 88.224 66.472V66.136ZM73.32 62.008H93.672V67.384H91.872V63.64H75.048V67.384H73.32V62.008ZM90.48 58.168L92.376 58.816C91.864 59.552 91.304 60.296 90.696 61.048C90.104 61.8 89.56 62.44 89.064 62.968L87.624 62.344C87.944 61.976 88.28 61.552 88.632 61.072C89 60.576 89.344 60.08 89.664 59.584C90 59.072 90.272 58.6 90.48 58.168ZM74.976 59.008L76.488 58.312C76.952 58.808 77.4 59.368 77.832 59.992C78.28 60.6 78.6 61.144 78.792 61.624L77.208 62.416C77.016 61.952 76.704 61.4 76.272 60.76C75.84 60.12 75.408 59.536 74.976 59.008ZM81.144 58.504L82.704 57.904C83.104 58.48 83.488 59.12 83.856 59.824C84.24 60.512 84.512 61.104 84.672 61.6L82.992 62.272C82.864 61.76 82.616 61.152 82.248 60.448C81.896 59.728 81.528 59.08 81.144 58.504ZM112.191 65.224V68.32H121.095V65.224H112.191ZM112.191 60.712V63.76H121.095V60.712H112.191ZM110.535 59.128H122.823V69.88H110.535V59.128ZM110.247 72.712H123.159V74.344H110.247V72.712ZM108.399 77.656H123.975V79.312H108.399V77.656ZM101.871 59.632H109.359V61.336H101.871V59.632ZM102.111 66.592H108.999V68.272H102.111V66.592ZM101.607 75.784C102.263 75.592 102.999 75.376 103.815 75.136C104.647 74.88 105.519 74.6 106.431 74.296C107.359 73.976 108.287 73.664 109.215 73.36L109.527 75.112C108.231 75.544 106.927 75.984 105.615 76.432C104.303 76.864 103.119 77.256 102.063 77.608L101.607 75.784ZM104.847 60.304H106.575V75.184L104.847 75.52V60.304ZM115.863 59.872H117.423V69.112H117.567V78.4H115.719V69.112H115.863V59.872ZM127.263 60.736H146.367V62.584H127.263V60.736ZM126.015 76.456H147.591V78.256H126.015V76.456ZM135.711 61.672H137.703V77.2H135.711V61.672ZM154.239 66.136H166.143V67.72H154.239V66.136ZM150.207 71.584H171.447V73.288H150.207V71.584ZM159.879 69.856H161.703V77.944C161.703 78.488 161.615 78.904 161.439 79.192C161.279 79.48 160.975 79.696 160.527 79.84C160.095 79.968 159.519 80.048 158.799 80.08C158.095 80.112 157.191 80.128 156.087 80.128C156.023 79.872 155.911 79.576 155.751 79.24C155.607 78.904 155.455 78.616 155.295 78.376C155.919 78.392 156.503 78.4 157.047 78.4C157.591 78.416 158.055 78.424 158.439 78.424C158.839 78.424 159.119 78.416 159.279 78.4C159.519 78.384 159.679 78.336 159.759 78.256C159.839 78.192 159.879 78.08 159.879 77.92V69.856ZM165.591 66.136H166.023L166.407 66.04L167.583 66.904C167.039 67.448 166.407 67.992 165.687 68.536C164.983 69.064 164.239 69.56 163.455 70.024C162.671 70.488 161.903 70.888 161.151 71.224C161.023 71.048 160.855 70.864 160.647 70.672C160.455 70.464 160.287 70.296 160.143 70.168C160.815 69.864 161.495 69.504 162.183 69.088C162.887 68.672 163.535 68.24 164.127 67.792C164.719 67.328 165.207 66.888 165.591 66.472V66.136ZM150.687 62.008H171.039V67.384H169.239V63.64H152.415V67.384H150.687V62.008ZM167.847 58.168L169.743 58.816C169.231 59.552 168.671 60.296 168.063 61.048C167.471 61.8 166.927 62.44 166.431 62.968L164.991 62.344C165.311 61.976 165.647 61.552 165.999 61.072C166.367 60.576 166.711 60.08 167.031 59.584C167.367 59.072 167.639 58.6 167.847 58.168ZM152.343 59.008L153.855 58.312C154.319 58.808 154.767 59.368 155.199 59.992C155.647 60.6 155.967 61.144 156.159 61.624L154.575 62.416C154.383 61.952 154.071 61.4 153.639 60.76C153.207 60.12 152.775 59.536 152.343 59.008ZM158.511 58.504L160.071 57.904C160.471 58.48 160.855 59.12 161.223 59.824C161.607 60.512 161.879 61.104 162.039 61.6L160.359 62.272C160.231 61.76 159.983 61.152 159.615 60.448C159.263 59.728 158.895 59.08 158.511 58.504ZM187.167 59.44H194.367V61.144H188.919V80.104H187.167V59.44ZM174.375 60.688H185.847V62.296H174.375V60.688ZM173.775 67.336H186.183V68.968H173.775V67.336ZM179.199 58.12H180.951V61.648H179.199V58.12ZM175.887 63.112L177.399 62.8C177.655 63.392 177.887 64.056 178.095 64.792C178.303 65.512 178.439 66.128 178.503 66.64L176.895 67.048C176.847 66.504 176.727 65.872 176.535 65.152C176.343 64.416 176.127 63.736 175.887 63.112ZM182.751 62.632L184.479 63.04C184.223 63.744 183.951 64.472 183.663 65.224C183.391 65.96 183.127 66.592 182.871 67.12L181.407 66.712C181.567 66.344 181.727 65.92 181.887 65.44C182.063 64.96 182.223 64.472 182.367 63.976C182.527 63.48 182.655 63.032 182.751 62.632ZM176.007 77.104H183.903V78.712H176.007V77.104ZM175.383 71.08H184.839V80.008H183.087V72.664H177.063V80.128H175.383V71.08ZM193.911 59.44H194.247L194.559 59.368L195.855 60.208C195.375 61.344 194.839 62.56 194.247 63.856C193.655 65.152 193.079 66.352 192.519 67.456C193.335 68.208 193.959 68.928 194.391 69.616C194.823 70.288 195.127 70.928 195.303 71.536C195.479 72.144 195.567 72.736 195.567 73.312C195.567 74.064 195.471 74.712 195.279 75.256C195.087 75.784 194.783 76.192 194.367 76.48C193.951 76.752 193.431 76.928 192.807 77.008C192.487 77.04 192.143 77.056 191.775 77.056C191.423 77.056 191.063 77.048 190.695 77.032C190.679 76.776 190.631 76.48 190.551 76.144C190.471 75.808 190.351 75.512 190.191 75.256C190.559 75.288 190.903 75.312 191.223 75.328C191.543 75.328 191.823 75.32 192.063 75.304C192.271 75.288 192.463 75.264 192.639 75.232C192.815 75.184 192.975 75.12 193.119 75.04C193.375 74.88 193.551 74.632 193.647 74.296C193.759 73.96 193.815 73.568 193.815 73.12C193.799 72.368 193.575 71.544 193.143 70.648C192.711 69.736 191.879 68.752 190.647 67.696C190.967 67.088 191.279 66.44 191.583 65.752C191.887 65.048 192.183 64.352 192.471 63.664C192.759 62.96 193.023 62.296 193.263 61.672C193.503 61.048 193.719 60.496 193.911 60.016V59.44ZM207.711 61.984C208.367 62.08 209.127 62.16 209.991 62.224C210.871 62.272 211.775 62.296 212.703 62.296C213.647 62.28 214.543 62.248 215.391 62.2C216.255 62.136 216.983 62.056 217.575 61.96V63.904C216.935 63.968 216.183 64.024 215.319 64.072C214.471 64.104 213.583 64.12 212.655 64.12C211.743 64.12 210.855 64.104 209.991 64.072C209.127 64.024 208.367 63.968 207.711 63.904V61.984ZM208.647 71.752C208.535 72.184 208.447 72.576 208.383 72.928C208.319 73.28 208.287 73.624 208.287 73.96C208.287 74.232 208.343 74.504 208.455 74.776C208.583 75.032 208.791 75.264 209.079 75.472C209.383 75.664 209.799 75.824 210.327 75.952C210.855 76.064 211.527 76.12 212.343 76.12C213.431 76.12 214.455 76.072 215.415 75.976C216.375 75.864 217.335 75.704 218.295 75.496L218.343 77.512C217.591 77.672 216.711 77.8 215.703 77.896C214.711 77.976 213.591 78.016 212.343 78.016C210.327 78.016 208.847 77.696 207.903 77.056C206.975 76.416 206.511 75.536 206.511 74.416C206.511 74.016 206.543 73.592 206.607 73.144C206.687 72.68 206.791 72.16 206.919 71.584L208.647 71.752ZM203.127 60.136C203.095 60.264 203.047 60.432 202.983 60.64C202.935 60.832 202.879 61.032 202.815 61.24C202.767 61.432 202.727 61.6 202.695 61.744C202.615 62.192 202.519 62.712 202.407 63.304C202.295 63.88 202.183 64.504 202.071 65.176C201.975 65.832 201.879 66.504 201.783 67.192C201.703 67.864 201.631 68.52 201.567 69.16C201.519 69.8 201.495 70.392 201.495 70.936C201.495 71.528 201.511 72.088 201.543 72.616C201.591 73.144 201.647 73.704 201.711 74.296C201.855 73.928 202.007 73.536 202.167 73.12C202.327 72.704 202.487 72.296 202.647 71.896C202.823 71.48 202.975 71.112 203.103 70.792L204.111 71.56C203.903 72.136 203.679 72.768 203.439 73.456C203.199 74.144 202.983 74.808 202.791 75.448C202.615 76.072 202.487 76.568 202.407 76.936C202.375 77.112 202.343 77.304 202.311 77.512C202.279 77.72 202.271 77.888 202.287 78.016C202.303 78.144 202.311 78.28 202.311 78.424C202.327 78.584 202.343 78.728 202.359 78.856L200.631 78.976C200.391 78.128 200.183 77.04 200.007 75.712C199.831 74.368 199.743 72.888 199.743 71.272C199.743 70.392 199.783 69.496 199.863 68.584C199.943 67.656 200.047 66.76 200.175 65.896C200.303 65.016 200.423 64.216 200.535 63.496C200.663 62.76 200.759 62.144 200.823 61.648C200.871 61.36 200.911 61.072 200.943 60.784C200.975 60.48 200.991 60.2 200.991 59.944L203.127 60.136ZM222.279 61.744H243.303V63.472H222.279V61.744ZM229.719 69.352H242.367V71.032H229.719V69.352ZM228.759 77.848H243.279V79.528H228.759V77.848ZM235.119 64.72H236.919V78.76H235.119V64.72ZM230.151 58.024L232.023 58.48C231.463 60.304 230.751 62.112 229.887 63.904C229.039 65.696 228.015 67.376 226.815 68.944C225.615 70.496 224.215 71.84 222.615 72.976C222.551 72.816 222.463 72.64 222.351 72.448C222.239 72.24 222.119 72.04 221.991 71.848C221.879 71.64 221.775 71.464 221.679 71.32C222.767 70.568 223.751 69.688 224.631 68.68C225.527 67.656 226.327 66.56 227.031 65.392C227.735 64.208 228.343 62.992 228.855 61.744C229.383 60.496 229.815 59.256 230.151 58.024ZM225.399 67.912H227.199V80.008H225.399V67.912ZM250.239 66.136H262.143V67.72H250.239V66.136ZM246.207 71.584H267.447V73.288H246.207V71.584ZM255.879 69.856H257.703V77.944C257.703 78.488 257.615 78.904 257.439 79.192C257.279 79.48 256.975 79.696 256.527 79.84C256.095 79.968 255.519 80.048 254.799 80.08C254.095 80.112 253.191 80.128 252.087 80.128C252.023 79.872 251.911 79.576 251.751 79.24C251.607 78.904 251.455 78.616 251.295 78.376C251.919 78.392 252.503 78.4 253.047 78.4C253.591 78.416 254.055 78.424 254.439 78.424C254.839 78.424 255.119 78.416 255.279 78.4C255.519 78.384 255.679 78.336 255.759 78.256C255.839 78.192 255.879 78.08 255.879 77.92V69.856ZM261.591 66.136H262.023L262.407 66.04L263.583 66.904C263.039 67.448 262.407 67.992 261.687 68.536C260.983 69.064 260.239 69.56 259.455 70.024C258.671 70.488 257.903 70.888 257.151 71.224C257.023 71.048 256.855 70.864 256.647 70.672C256.455 70.464 256.287 70.296 256.143 70.168C256.815 69.864 257.495 69.504 258.183 69.088C258.887 68.672 259.535 68.24 260.127 67.792C260.719 67.328 261.207 66.888 261.591 66.472V66.136ZM246.687 62.008H267.039V67.384H265.239V63.64H248.415V67.384H246.687V62.008ZM263.847 58.168L265.743 58.816C265.231 59.552 264.671 60.296 264.063 61.048C263.471 61.8 262.927 62.44 262.431 62.968L260.991 62.344C261.311 61.976 261.647 61.552 261.999 61.072C262.367 60.576 262.711 60.08 263.031 59.584C263.367 59.072 263.639 58.6 263.847 58.168ZM248.343 59.008L249.855 58.312C250.319 58.808 250.767 59.368 251.199 59.992C251.647 60.6 251.967 61.144 252.159 61.624L250.575 62.416C250.383 61.952 250.071 61.4 249.639 60.76C249.207 60.12 248.775 59.536 248.343 59.008ZM254.511 58.504L256.071 57.904C256.471 58.48 256.855 59.12 257.223 59.824C257.607 60.512 257.879 61.104 258.039 61.6L256.359 62.272C256.231 61.76 255.983 61.152 255.615 60.448C255.263 59.728 254.895 59.08 254.511 58.504ZM271.071 62.32H290.415V73.6H288.567V64.072H272.871V73.72H271.071V62.32ZM272.031 70.456H289.647V72.232H272.031V70.456ZM279.759 58.024H281.655V80.08H279.759V58.024ZM297.423 72.328C298.111 72.328 298.727 72.496 299.271 72.832C299.815 73.152 300.255 73.592 300.591 74.152C300.927 74.696 301.095 75.304 301.095 75.976C301.095 76.648 300.927 77.264 300.591 77.824C300.255 78.368 299.815 78.808 299.271 79.144C298.727 79.48 298.111 79.648 297.423 79.648C296.751 79.648 296.135 79.48 295.575 79.144C295.031 78.808 294.591 78.368 294.255 77.824C293.935 77.264 293.775 76.648 293.775 75.976C293.775 75.304 293.935 74.696 294.255 74.152C294.591 73.592 295.039 73.152 295.599 72.832C296.159 72.496 296.767 72.328 297.423 72.328ZM297.423 78.424C298.111 78.424 298.687 78.192 299.151 77.728C299.631 77.248 299.871 76.664 299.871 75.976C299.871 75.544 299.759 75.144 299.535 74.776C299.327 74.408 299.039 74.112 298.671 73.888C298.303 73.664 297.887 73.552 297.423 73.552C296.991 73.552 296.591 73.664 296.223 73.888C295.855 74.112 295.559 74.408 295.335 74.776C295.111 75.144 294.999 75.544 294.999 75.976C294.999 76.424 295.111 76.84 295.335 77.224C295.559 77.592 295.855 77.888 296.223 78.112C296.591 78.32 296.991 78.424 297.423 78.424ZM11.688 97.32L13.152 96.576C13.6 97.152 14.048 97.768 14.496 98.424C14.944 99.08 15.344 99.736 15.696 100.392C16.064 101.032 16.344 101.608 16.536 102.12L14.928 102.96C14.768 102.448 14.512 101.864 14.16 101.208C13.824 100.552 13.44 99.888 13.008 99.216C12.576 98.528 12.136 97.896 11.688 97.32ZM11.808 91.368H20.952V93.072H11.808V91.368ZM20.208 91.368H21.96C21.96 91.368 21.96 91.432 21.96 91.56C21.96 91.672 21.96 91.8 21.96 91.944C21.96 92.088 21.952 92.2 21.936 92.28C21.84 95 21.736 97.296 21.624 99.168C21.528 101.04 21.408 102.584 21.264 103.8C21.136 105 20.984 105.936 20.808 106.608C20.632 107.28 20.416 107.76 20.16 108.048C19.904 108.4 19.624 108.64 19.32 108.768C19.016 108.896 18.64 108.984 18.192 109.032C17.792 109.08 17.248 109.096 16.56 109.08C15.872 109.064 15.168 109.04 14.448 109.008C14.432 108.736 14.368 108.424 14.256 108.072C14.16 107.736 14.032 107.448 13.872 107.208C14.672 107.272 15.408 107.312 16.08 107.328C16.768 107.344 17.256 107.352 17.544 107.352C17.8 107.352 18.008 107.328 18.168 107.28C18.328 107.232 18.472 107.128 18.6 106.968C18.808 106.76 18.992 106.336 19.152 105.696C19.312 105.04 19.456 104.12 19.584 102.936C19.712 101.752 19.824 100.24 19.92 98.4C20.016 96.56 20.112 94.344 20.208 91.752V91.368ZM12.72 87L14.544 87.408C14.208 88.56 13.8 89.696 13.32 90.816C12.856 91.92 12.344 92.952 11.784 93.912C11.224 94.872 10.64 95.72 10.032 96.456C9.90403 96.36 9.74402 96.248 9.55202 96.12C9.36002 95.976 9.16002 95.84 8.95203 95.712C8.74402 95.568 8.56002 95.456 8.40003 95.376C9.04002 94.704 9.62402 93.928 10.152 93.048C10.696 92.152 11.184 91.184 11.616 90.144C12.048 89.104 12.416 88.056 12.72 87ZM4.08002 87.024L5.68802 87.648C5.40002 88.224 5.08002 88.832 4.72802 89.472C4.37602 90.112 4.03202 90.728 3.69602 91.32C3.36002 91.896 3.03202 92.408 2.71202 92.856L1.46402 92.304C1.76802 91.84 2.08002 91.304 2.40002 90.696C2.72002 90.072 3.03202 89.44 3.33602 88.8C3.64002 88.144 3.88802 87.552 4.08002 87.024ZM6.98402 89.76L8.56803 90.432C8.00802 91.344 7.38402 92.304 6.69602 93.312C6.02402 94.304 5.34402 95.272 4.65602 96.216C3.96802 97.16 3.32002 97.976 2.71202 98.664L1.56002 98.064C2.02402 97.52 2.50402 96.904 3.00002 96.216C3.49602 95.528 3.98402 94.808 4.46402 94.056C4.96002 93.304 5.42402 92.56 5.85602 91.824C6.28802 91.088 6.66402 90.4 6.98402 89.76ZM0.312024 92.088L1.20002 90.888C1.64802 91.256 2.10402 91.664 2.56802 92.112C3.03202 92.56 3.45602 93.008 3.84002 93.456C4.22402 93.888 4.52002 94.28 4.72802 94.632L3.76802 96.024C3.54402 95.64 3.24002 95.216 2.85602 94.752C2.48802 94.288 2.08002 93.824 1.63202 93.36C1.18402 92.896 0.744025 92.472 0.312024 92.088ZM6.21602 95.328L7.56002 94.752C7.91202 95.28 8.24802 95.84 8.56803 96.432C8.88802 97.024 9.16802 97.6 9.40803 98.16C9.66403 98.72 9.84803 99.224 9.96003 99.672L8.54402 100.344C8.41602 99.896 8.23202 99.384 7.99202 98.808C7.75202 98.232 7.48002 97.64 7.17602 97.032C6.87202 96.424 6.55202 95.856 6.21602 95.328ZM0.264024 97.752C1.33602 97.72 2.62402 97.68 4.12802 97.632C5.63202 97.568 7.17602 97.496 8.76002 97.416V98.904C7.24002 99 5.75202 99.088 4.29602 99.168C2.84002 99.248 1.54402 99.32 0.408024 99.384L0.264024 97.752ZM6.84002 101.088L8.18403 100.632C8.53602 101.368 8.86402 102.168 9.16802 103.032C9.48802 103.896 9.71202 104.64 9.84003 105.264L8.35203 105.768C8.24003 105.128 8.04002 104.376 7.75202 103.512C7.46402 102.632 7.16002 101.824 6.84002 101.088ZM1.58402 100.752L3.12002 101.016C2.96002 102.152 2.73602 103.272 2.44802 104.376C2.16002 105.464 1.82402 106.392 1.44002 107.16C1.32802 107.08 1.18402 107 1.00802 106.92C0.848024 106.84 0.672024 106.76 0.480024 106.68C0.304024 106.584 0.144024 106.512 2.4423e-05 106.464C0.416024 105.728 0.744024 104.856 0.984024 103.848C1.24002 102.824 1.44002 101.792 1.58402 100.752ZM4.34402 98.448H5.97602V109.152H4.34402V98.448ZM25.512 107.184V105.36H29.448V92.232H26.304V90.84C27.088 90.696 27.768 90.52 28.344 90.312C28.936 90.104 29.472 89.864 29.952 89.592H31.632V105.36H35.16V107.184H25.512ZM43.3845 107.496C42.2805 107.496 41.3125 107.16 40.4805 106.488C39.6645 105.816 39.0325 104.8 38.5845 103.44C38.1365 102.08 37.9125 100.376 37.9125 98.328C37.9125 96.28 38.1365 94.592 38.5845 93.264C39.0325 91.92 39.6645 90.92 40.4805 90.264C41.3125 89.608 42.2805 89.28 43.3845 89.28C44.5045 89.28 45.4725 89.616 46.2885 90.288C47.1045 90.944 47.7365 91.936 48.1845 93.264C48.6325 94.592 48.8565 96.28 48.8565 98.328C48.8565 100.376 48.6325 102.08 48.1845 103.44C47.7365 104.8 47.1045 105.816 46.2885 106.488C45.4725 107.16 44.5045 107.496 43.3845 107.496ZM43.3845 105.72C44.0565 105.72 44.6405 105.464 45.1365 104.952C45.6485 104.44 46.0405 103.64 46.3125 102.552C46.6005 101.448 46.7445 100.04 46.7445 98.328C46.7445 96.616 46.6005 95.224 46.3125 94.152C46.0405 93.064 45.6485 92.272 45.1365 91.776C44.6405 91.264 44.0565 91.008 43.3845 91.008C42.7285 91.008 42.1445 91.264 41.6325 91.776C41.1205 92.272 40.7205 93.064 40.4325 94.152C40.1605 95.224 40.0245 96.616 40.0245 98.328C40.0245 100.04 40.1605 101.448 40.4325 102.552C40.7205 103.64 41.1205 104.44 41.6325 104.952C42.1445 105.464 42.7285 105.72 43.3845 105.72ZM56.673 86.928L58.497 87.408C58.049 88.576 57.521 89.72 56.913 90.84C56.321 91.944 55.673 92.976 54.969 93.936C54.265 94.88 53.537 95.712 52.785 96.432C52.673 96.336 52.521 96.216 52.329 96.072C52.153 95.912 51.961 95.76 51.753 95.616C51.561 95.472 51.385 95.36 51.225 95.28C51.993 94.608 52.713 93.84 53.385 92.976C54.073 92.096 54.697 91.144 55.257 90.12C55.817 89.08 56.289 88.016 56.673 86.928ZM56.313 89.928H71.793V91.656H55.425L56.313 89.928ZM55.137 95.352H71.241V97.056H56.937V102.72H55.137V95.352ZM51.177 101.832H72.921V103.56H51.177V101.832ZM62.313 90.84H64.161V109.104H62.313V90.84ZM82.377 101.736H89.649V103.128H82.377V101.736ZM82.281 98.112H90.465V106.872H82.281V105.456H88.785V99.528H82.281V98.112ZM81.513 98.112H83.145V108.096H81.513V98.112ZM77.073 91.464H83.745V92.784H77.073V91.464ZM88.137 91.464H94.953V92.784H88.137V91.464ZM94.185 88.056H96.009V106.728C96.009 107.288 95.929 107.728 95.769 108.048C95.625 108.368 95.353 108.608 94.953 108.768C94.569 108.928 94.041 109.024 93.369 109.056C92.713 109.088 91.889 109.104 90.897 109.104C90.865 108.928 90.817 108.728 90.753 108.504C90.689 108.28 90.609 108.056 90.513 107.832C90.433 107.608 90.353 107.416 90.273 107.256C90.753 107.272 91.217 107.28 91.665 107.28C92.129 107.28 92.537 107.28 92.889 107.28C93.241 107.28 93.489 107.28 93.633 107.28C93.841 107.264 93.985 107.216 94.065 107.136C94.145 107.056 94.185 106.912 94.185 106.704V88.056ZM77.217 88.056H84.897V96.288H77.217V94.92H83.217V89.448H77.217V88.056ZM95.097 88.056V89.448H88.785V94.944H95.097V96.336H87.081V88.056H95.097ZM76.185 88.056H77.985V109.128H76.185V88.056ZM115.401 90.864C115.401 91.44 115.401 92.064 115.401 92.736C115.401 93.392 115.401 94.04 115.401 94.68C115.401 95.32 115.401 95.888 115.401 96.384C115.401 97.136 115.417 97.904 115.449 98.688C115.481 99.456 115.513 100.208 115.545 100.944C115.593 101.68 115.633 102.368 115.665 103.008C115.697 103.648 115.713 104.208 115.713 104.688C115.713 105.664 115.377 106.424 114.705 106.968C114.049 107.496 113.073 107.76 111.777 107.76C110.913 107.76 110.129 107.632 109.425 107.376C108.721 107.136 108.169 106.768 107.769 106.272C107.369 105.776 107.169 105.152 107.169 104.4C107.169 103.84 107.329 103.312 107.649 102.816C107.969 102.304 108.465 101.896 109.137 101.592C109.825 101.272 110.697 101.112 111.753 101.112C112.825 101.112 113.809 101.232 114.705 101.472C115.601 101.696 116.417 101.992 117.153 102.36C117.889 102.728 118.553 103.128 119.145 103.56C119.753 103.992 120.281 104.408 120.729 104.808L119.697 106.488C118.945 105.704 118.129 105.016 117.249 104.424C116.369 103.832 115.465 103.376 114.537 103.056C113.609 102.72 112.665 102.552 111.705 102.552C110.857 102.552 110.169 102.72 109.641 103.056C109.129 103.376 108.873 103.792 108.873 104.304C108.873 104.896 109.121 105.344 109.617 105.648C110.113 105.952 110.777 106.104 111.609 106.104C112.249 106.104 112.729 106.008 113.049 105.816C113.385 105.608 113.617 105.336 113.745 105C113.889 104.664 113.961 104.288 113.961 103.872C113.961 103.52 113.945 103.064 113.913 102.504C113.897 101.928 113.865 101.296 113.817 100.608C113.785 99.904 113.753 99.2 113.721 98.496C113.689 97.776 113.673 97.104 113.673 96.48C113.673 95.904 113.673 95.264 113.673 94.56C113.673 93.856 113.673 93.176 113.673 92.52C113.673 91.848 113.673 91.296 113.673 90.864H115.401ZM107.889 95.544C109.329 95.64 110.761 95.688 112.185 95.688C113.609 95.672 114.977 95.616 116.289 95.52C117.601 95.424 118.801 95.312 119.889 95.184V96.936C118.865 97.048 117.689 97.144 116.361 97.224C115.049 97.304 113.665 97.36 112.209 97.392C110.769 97.408 109.329 97.376 107.889 97.296V95.544ZM108.249 89.976C109.225 90.056 110.217 90.104 111.225 90.12C112.233 90.12 113.225 90.104 114.201 90.072C115.177 90.024 116.097 89.968 116.961 89.904C117.841 89.824 118.633 89.736 119.337 89.64V91.32C118.665 91.4 117.889 91.472 117.009 91.536C116.129 91.6 115.201 91.648 114.225 91.68C113.249 91.712 112.249 91.728 111.225 91.728C110.217 91.728 109.225 91.704 108.249 91.656V89.976ZM104.145 88.992C104.097 89.12 104.041 89.28 103.977 89.472C103.929 89.664 103.881 89.864 103.833 90.072C103.785 90.264 103.745 90.432 103.713 90.576C103.617 91.024 103.513 91.56 103.401 92.184C103.305 92.792 103.201 93.448 103.089 94.152C102.993 94.84 102.905 95.544 102.825 96.264C102.745 96.984 102.681 97.68 102.633 98.352C102.585 99.008 102.561 99.608 102.561 100.152C102.561 100.728 102.577 101.288 102.609 101.832C102.657 102.376 102.713 102.944 102.777 103.536C102.905 103.168 103.049 102.768 103.209 102.336C103.369 101.904 103.537 101.48 103.713 101.064C103.889 100.648 104.041 100.272 104.169 99.936L105.153 100.728C104.945 101.272 104.721 101.888 104.481 102.576C104.257 103.248 104.049 103.896 103.857 104.52C103.665 105.144 103.529 105.648 103.449 106.032C103.417 106.192 103.385 106.376 103.353 106.584C103.337 106.792 103.329 106.968 103.329 107.112C103.345 107.224 103.353 107.36 103.353 107.52C103.369 107.68 103.385 107.824 103.401 107.952L101.697 108.072C101.441 107.208 101.225 106.136 101.049 104.856C100.873 103.56 100.785 102.104 100.785 100.488C100.785 99.592 100.825 98.672 100.905 97.728C100.985 96.768 101.081 95.832 101.193 94.92C101.321 93.992 101.441 93.152 101.553 92.4C101.681 91.632 101.785 91 101.865 90.504C101.897 90.216 101.929 89.92 101.961 89.616C101.993 89.312 102.009 89.04 102.009 88.8L104.145 88.992ZM140.265 93.504C140.009 93.664 139.729 93.824 139.425 93.984C139.121 94.144 138.793 94.312 138.441 94.488C137.897 94.776 137.257 95.104 136.521 95.472C135.785 95.84 135.001 96.248 134.169 96.696C133.353 97.144 132.561 97.632 131.793 98.16C130.673 98.88 129.793 99.64 129.153 100.44C128.529 101.24 128.217 102.096 128.217 103.008C128.217 104 128.689 104.792 129.633 105.384C130.577 105.96 132.001 106.248 133.905 106.248C134.785 106.248 135.697 106.216 136.641 106.152C137.585 106.072 138.489 105.968 139.353 105.84C140.233 105.712 140.977 105.576 141.585 105.432L141.561 107.568C140.969 107.68 140.273 107.776 139.473 107.856C138.673 107.952 137.809 108.024 136.881 108.072C135.953 108.136 134.985 108.168 133.977 108.168C132.857 108.168 131.825 108.072 130.881 107.88C129.937 107.704 129.113 107.424 128.409 107.04C127.721 106.656 127.185 106.152 126.801 105.528C126.417 104.888 126.225 104.12 126.225 103.224C126.225 102.344 126.401 101.536 126.753 100.8C127.121 100.048 127.649 99.336 128.337 98.664C129.041 97.992 129.857 97.344 130.785 96.72C131.601 96.16 132.433 95.648 133.281 95.184C134.129 94.72 134.929 94.296 135.681 93.912C136.449 93.512 137.089 93.168 137.601 92.88C137.937 92.688 138.241 92.504 138.513 92.328C138.785 92.152 139.049 91.96 139.305 91.752L140.265 93.504ZM128.769 88.824C129.137 89.848 129.537 90.856 129.969 91.848C130.401 92.824 130.833 93.736 131.265 94.584C131.697 95.432 132.097 96.176 132.465 96.816L130.833 97.8C130.433 97.144 130.009 96.368 129.561 95.472C129.113 94.576 128.657 93.624 128.193 92.616C127.745 91.608 127.305 90.608 126.873 89.616L128.769 88.824ZM140.673 88.584C140.881 88.872 141.105 89.216 141.345 89.616C141.585 90 141.817 90.392 142.041 90.792C142.281 91.192 142.481 91.56 142.641 91.896L141.345 92.472C141.105 91.976 140.801 91.408 140.433 90.768C140.065 90.128 139.713 89.584 139.377 89.136L140.673 88.584ZM143.313 87.624C143.537 87.912 143.769 88.256 144.009 88.656C144.265 89.056 144.513 89.456 144.753 89.856C144.993 90.24 145.185 90.584 145.329 90.888L144.057 91.464C143.785 90.952 143.465 90.384 143.097 89.76C142.745 89.136 142.393 88.6 142.041 88.152L143.313 87.624ZM149.265 93.744V96.408H156.585V93.744H149.265ZM149.265 89.712V92.328H156.585V89.712H149.265ZM147.753 88.224H158.145V97.896H147.753V88.224ZM147.729 100.608H158.145V102.24H147.729V100.608ZM146.937 106.416C147.913 106.304 149.033 106.168 150.297 106.008C151.577 105.832 152.937 105.648 154.377 105.456C155.833 105.264 157.289 105.072 158.745 104.88L158.769 106.464C157.393 106.672 156.001 106.88 154.593 107.088C153.201 107.296 151.873 107.496 150.609 107.688C149.345 107.88 148.201 108.048 147.177 108.192L146.937 106.416ZM158.937 88.272H167.673V89.904H158.937V88.272ZM158.649 95.976H168.033V97.704H158.649V95.976ZM166.929 88.272H167.361L167.721 88.176L168.921 88.968C168.505 89.592 168.017 90.232 167.457 90.888C166.913 91.544 166.337 92.16 165.729 92.736C165.121 93.312 164.513 93.824 163.905 94.272C163.793 94.096 163.633 93.912 163.425 93.72C163.217 93.512 163.041 93.352 162.897 93.24C163.409 92.84 163.913 92.376 164.409 91.848C164.921 91.304 165.401 90.752 165.849 90.192C166.297 89.616 166.657 89.088 166.929 88.608V88.272ZM159.873 92.472L161.025 91.368C161.729 91.72 162.449 92.136 163.185 92.616C163.921 93.096 164.609 93.584 165.249 94.08C165.889 94.576 166.417 95.032 166.833 95.448L165.657 96.72C165.257 96.272 164.737 95.792 164.097 95.28C163.457 94.768 162.769 94.264 162.033 93.768C161.313 93.272 160.593 92.84 159.873 92.472ZM167.505 95.976H167.769L168.081 95.904L169.305 96.24C169.001 97.232 168.673 98.256 168.321 99.312C167.969 100.352 167.617 101.232 167.265 101.952L165.777 101.544C165.985 101.096 166.193 100.576 166.401 99.984C166.609 99.392 166.809 98.776 167.001 98.136C167.193 97.496 167.361 96.88 167.505 96.288V95.976ZM162.513 96.84H164.313V106.92C164.313 107.416 164.241 107.808 164.097 108.096C163.969 108.384 163.721 108.608 163.353 108.768C162.985 108.912 162.489 109 161.865 109.032C161.241 109.064 160.473 109.08 159.561 109.08C159.529 108.824 159.457 108.52 159.345 108.168C159.233 107.832 159.113 107.536 158.985 107.28C159.705 107.312 160.345 107.328 160.905 107.328C161.465 107.344 161.841 107.344 162.033 107.328C162.225 107.312 162.353 107.272 162.417 107.208C162.481 107.144 162.513 107.032 162.513 106.872V96.84ZM152.169 88.8H153.705V97.224H153.801V106.104H152.073V97.224H152.169V88.8ZM171.129 89.064H178.929V90.744H171.129V89.064ZM178.473 91.296H193.185V92.952H178.473V91.296ZM171.417 95.784H178.569V97.488H171.417V95.784ZM170.793 104.304C171.481 104.112 172.265 103.88 173.145 103.608C174.041 103.32 174.985 103.016 175.977 102.696C176.969 102.36 177.969 102.032 178.977 101.712L179.217 103.296C177.841 103.776 176.449 104.256 175.041 104.736C173.649 105.216 172.401 105.648 171.297 106.032L170.793 104.304ZM184.713 87H186.441V106.824C186.441 107.368 186.361 107.784 186.201 108.072C186.057 108.36 185.825 108.584 185.505 108.744C185.153 108.888 184.689 108.976 184.113 109.008C183.537 109.056 182.769 109.08 181.809 109.08C181.793 108.92 181.745 108.736 181.665 108.528C181.601 108.336 181.521 108.128 181.425 107.904C181.345 107.696 181.257 107.512 181.161 107.352C181.865 107.368 182.489 107.376 183.033 107.376C183.593 107.376 183.969 107.376 184.161 107.376C184.353 107.36 184.489 107.312 184.569 107.232C184.665 107.168 184.713 107.032 184.713 106.824V87ZM177.105 105C177.905 104.552 178.873 103.976 180.009 103.272C181.145 102.552 182.289 101.824 183.441 101.088L183.993 102.576C183.001 103.296 181.985 104.008 180.945 104.712C179.905 105.416 178.945 106.048 178.065 106.608L177.105 105ZM179.049 95.136L180.465 94.512C180.817 94.944 181.169 95.424 181.521 95.952C181.889 96.48 182.217 97 182.505 97.512C182.809 98.008 183.033 98.464 183.177 98.88L181.713 99.6C181.569 99.2 181.353 98.744 181.065 98.232C180.777 97.704 180.457 97.176 180.105 96.648C179.753 96.104 179.401 95.6 179.049 95.136ZM191.289 94.248L192.873 95.112C192.521 95.608 192.145 96.128 191.745 96.672C191.361 97.2 190.969 97.712 190.569 98.208C190.169 98.704 189.793 99.144 189.441 99.528L188.169 98.784C188.505 98.384 188.865 97.928 189.249 97.416C189.649 96.888 190.025 96.344 190.377 95.784C190.729 95.224 191.033 94.712 191.289 94.248ZM188.049 88.224L189.033 87.24C189.465 87.48 189.905 87.752 190.353 88.056C190.817 88.36 191.241 88.664 191.625 88.968C192.025 89.272 192.353 89.568 192.609 89.856L191.553 90.96C191.185 90.544 190.665 90.08 189.993 89.568C189.321 89.04 188.673 88.592 188.049 88.224ZM174.105 89.76H175.857V103.656L174.105 103.992V89.76ZM186.369 93.264C186.609 94.848 186.905 96.272 187.257 97.536C187.625 98.8 188.081 99.936 188.625 100.944C189.185 101.952 189.857 102.872 190.641 103.704C191.441 104.536 192.401 105.32 193.521 106.056C193.313 106.216 193.097 106.432 192.873 106.704C192.665 106.96 192.497 107.208 192.369 107.448C191.201 106.616 190.193 105.736 189.345 104.808C188.513 103.88 187.809 102.864 187.233 101.76C186.673 100.656 186.201 99.432 185.817 98.088C185.433 96.744 185.121 95.232 184.881 93.552L186.369 93.264ZM204.969 90.984C205.625 91.08 206.385 91.16 207.249 91.224C208.129 91.272 209.033 91.296 209.961 91.296C210.905 91.28 211.801 91.248 212.649 91.2C213.513 91.136 214.241 91.056 214.833 90.96V92.904C214.193 92.968 213.441 93.024 212.577 93.072C211.729 93.104 210.841 93.12 209.913 93.12C209.001 93.12 208.113 93.104 207.249 93.072C206.385 93.024 205.625 92.968 204.969 92.904V90.984ZM205.905 100.752C205.793 101.184 205.705 101.576 205.641 101.928C205.577 102.28 205.545 102.624 205.545 102.96C205.545 103.232 205.601 103.504 205.713 103.776C205.841 104.032 206.049 104.264 206.337 104.472C206.641 104.664 207.057 104.824 207.585 104.952C208.113 105.064 208.785 105.12 209.601 105.12C210.689 105.12 211.713 105.072 212.673 104.976C213.633 104.864 214.593 104.704 215.553 104.496L215.601 106.512C214.849 106.672 213.969 106.8 212.961 106.896C211.969 106.976 210.849 107.016 209.601 107.016C207.585 107.016 206.105 106.696 205.161 106.056C204.233 105.416 203.769 104.536 203.769 103.416C203.769 103.016 203.801 102.592 203.865 102.144C203.945 101.68 204.049 101.16 204.177 100.584L205.905 100.752ZM200.385 89.136C200.353 89.264 200.305 89.432 200.241 89.64C200.193 89.832 200.137 90.032 200.073 90.24C200.025 90.432 199.985 90.6 199.953 90.744C199.873 91.192 199.777 91.712 199.665 92.304C199.553 92.88 199.441 93.504 199.329 94.176C199.233 94.832 199.137 95.504 199.041 96.192C198.961 96.864 198.889 97.52 198.825 98.16C198.777 98.8 198.753 99.392 198.753 99.936C198.753 100.528 198.769 101.088 198.801 101.616C198.849 102.144 198.905 102.704 198.969 103.296C199.113 102.928 199.265 102.536 199.425 102.12C199.585 101.704 199.745 101.296 199.905 100.896C200.081 100.48 200.233 100.112 200.361 99.792L201.369 100.56C201.161 101.136 200.937 101.768 200.697 102.456C200.457 103.144 200.241 103.808 200.049 104.448C199.873 105.072 199.745 105.568 199.665 105.936C199.633 106.112 199.601 106.304 199.569 106.512C199.537 106.72 199.529 106.888 199.545 107.016C199.561 107.144 199.569 107.28 199.569 107.424C199.585 107.584 199.601 107.728 199.617 107.856L197.889 107.976C197.649 107.128 197.441 106.04 197.265 104.712C197.089 103.368 197.001 101.888 197.001 100.272C197.001 99.392 197.041 98.496 197.121 97.584C197.201 96.656 197.305 95.76 197.433 94.896C197.561 94.016 197.681 93.216 197.793 92.496C197.921 91.76 198.017 91.144 198.081 90.648C198.129 90.36 198.169 90.072 198.201 89.784C198.233 89.48 198.249 89.2 198.249 88.944L200.385 89.136ZM218.961 99.72C219.729 99.528 220.601 99.304 221.577 99.048C222.553 98.776 223.585 98.488 224.673 98.184C225.761 97.864 226.849 97.552 227.937 97.248L228.177 98.952C226.657 99.4 225.129 99.856 223.593 100.32C222.073 100.784 220.713 101.184 219.513 101.52L218.961 99.72ZM219.177 91.872H227.913V93.6H219.177V91.872ZM222.801 87.024H224.577V106.728C224.577 107.224 224.513 107.608 224.385 107.88C224.257 108.152 224.033 108.368 223.713 108.528C223.393 108.672 222.969 108.76 222.441 108.792C221.913 108.84 221.233 108.864 220.401 108.864C220.369 108.624 220.297 108.336 220.185 108C220.073 107.68 219.953 107.4 219.825 107.16C220.385 107.176 220.897 107.184 221.361 107.184C221.841 107.184 222.161 107.176 222.321 107.16C222.641 107.16 222.801 107.008 222.801 106.704V87.024ZM228.057 89.04H241.089V90.84H228.057V89.04ZM234.897 89.688H236.817V106.464C236.817 107.072 236.729 107.544 236.553 107.88C236.377 108.216 236.073 108.464 235.641 108.624C235.193 108.784 234.585 108.88 233.817 108.912C233.049 108.944 232.097 108.96 230.961 108.96C230.929 108.784 230.873 108.576 230.793 108.336C230.713 108.112 230.625 107.88 230.529 107.64C230.433 107.4 230.329 107.192 230.217 107.016C230.825 107.032 231.401 107.048 231.945 107.064C232.489 107.08 232.961 107.088 233.361 107.088C233.777 107.072 234.073 107.056 234.249 107.04C234.489 107.04 234.657 107 234.753 106.92C234.849 106.824 234.897 106.664 234.897 106.44V89.688ZM252.177 88.392C252.081 88.712 252.001 89.048 251.937 89.4C251.873 89.752 251.809 90.088 251.745 90.408C251.665 90.792 251.569 91.272 251.457 91.848C251.361 92.408 251.233 93.024 251.073 93.696C250.929 94.352 250.777 95.016 250.617 95.688C250.457 96.36 250.289 97 250.113 97.608C249.953 98.2 249.785 98.72 249.609 99.168C250.665 98.432 251.737 97.912 252.825 97.608C253.929 97.288 255.113 97.128 256.377 97.128C257.657 97.128 258.745 97.328 259.641 97.728C260.537 98.128 261.225 98.688 261.705 99.408C262.185 100.112 262.425 100.936 262.425 101.88C262.425 103.128 262.121 104.184 261.513 105.048C260.905 105.912 260.049 106.592 258.945 107.088C257.841 107.584 256.529 107.896 255.009 108.024C253.505 108.168 251.833 108.144 249.993 107.952L249.513 106.056C250.905 106.248 252.249 106.328 253.545 106.296C254.857 106.248 256.025 106.072 257.049 105.768C258.089 105.448 258.913 104.976 259.521 104.352C260.145 103.728 260.457 102.92 260.457 101.928C260.457 101.032 260.089 100.28 259.353 99.672C258.633 99.048 257.569 98.736 256.161 98.736C254.737 98.736 253.401 98.984 252.153 99.48C250.905 99.96 249.881 100.68 249.081 101.64C248.937 101.816 248.801 101.992 248.673 102.168C248.561 102.328 248.449 102.52 248.337 102.744L246.537 102.096C247.001 101.2 247.425 100.2 247.809 99.096C248.193 97.976 248.529 96.848 248.817 95.712C249.105 94.576 249.345 93.536 249.537 92.592C249.729 91.632 249.865 90.856 249.945 90.264C249.993 89.88 250.025 89.536 250.041 89.232C250.057 88.928 250.057 88.608 250.041 88.272L252.177 88.392ZM244.713 91.44C245.353 91.552 246.089 91.648 246.921 91.728C247.769 91.808 248.553 91.848 249.273 91.848C250.041 91.848 250.897 91.824 251.841 91.776C252.785 91.728 253.769 91.656 254.793 91.56C255.817 91.464 256.841 91.344 257.865 91.2C258.905 91.04 259.897 90.856 260.841 90.648L260.865 92.496C260.017 92.64 259.089 92.776 258.081 92.904C257.089 93.032 256.073 93.144 255.033 93.24C253.993 93.336 252.977 93.416 251.985 93.48C251.009 93.528 250.113 93.552 249.297 93.552C248.481 93.552 247.689 93.528 246.921 93.48C246.169 93.432 245.441 93.376 244.737 93.312L244.713 91.44ZM275.745 88.248H280.785V89.952H275.745V88.248ZM279.681 88.248H281.649C281.809 90.072 282.049 91.8 282.369 93.432C282.689 95.048 283.129 96.528 283.689 97.872C284.265 99.2 284.977 100.368 285.825 101.376C286.689 102.384 287.721 103.2 288.921 103.824C288.777 103.904 288.617 104.024 288.441 104.184C288.265 104.344 288.089 104.512 287.913 104.688C287.753 104.864 287.617 105.024 287.505 105.168C286.289 104.464 285.241 103.584 284.361 102.528C283.497 101.456 282.777 100.24 282.201 98.88C281.625 97.504 281.169 96 280.833 94.368C280.497 92.72 280.241 90.968 280.065 89.112H279.681V88.248ZM279.777 92.88L281.625 93.168C281.065 95.888 280.209 98.248 279.057 100.248C277.921 102.248 276.457 103.888 274.665 105.168C274.585 105.056 274.457 104.92 274.281 104.76C274.121 104.584 273.945 104.416 273.753 104.256C273.561 104.08 273.393 103.936 273.249 103.824C275.025 102.704 276.433 101.216 277.473 99.36C278.529 97.504 279.297 95.344 279.777 92.88ZM272.313 96.504V105H270.561V98.184H267.201V96.504H272.313ZM272.313 104.208C272.889 105.088 273.689 105.744 274.713 106.176C275.737 106.608 276.945 106.848 278.337 106.896C278.993 106.928 279.785 106.952 280.713 106.968C281.657 106.968 282.641 106.96 283.665 106.944C284.705 106.928 285.705 106.904 286.665 106.872C287.625 106.84 288.465 106.8 289.185 106.752C289.105 106.88 289.025 107.056 288.945 107.28C288.865 107.504 288.793 107.728 288.729 107.952C288.665 108.192 288.617 108.4 288.585 108.576C287.929 108.608 287.153 108.632 286.257 108.648C285.361 108.664 284.433 108.672 283.473 108.672C282.513 108.688 281.577 108.688 280.665 108.672C279.769 108.672 278.993 108.664 278.337 108.648C276.769 108.584 275.425 108.328 274.305 107.88C273.201 107.432 272.265 106.728 271.497 105.768C270.921 106.28 270.329 106.792 269.721 107.304C269.113 107.832 268.481 108.368 267.825 108.912L266.889 107.064C267.465 106.68 268.081 106.24 268.737 105.744C269.409 105.232 270.057 104.72 270.681 104.208H272.313ZM267.465 88.68L268.785 87.6C269.313 87.936 269.849 88.328 270.393 88.776C270.937 89.208 271.433 89.648 271.881 90.096C272.345 90.544 272.721 90.96 273.009 91.344L271.569 92.544C271.329 92.16 270.977 91.736 270.513 91.272C270.065 90.808 269.569 90.352 269.025 89.904C268.497 89.44 267.977 89.032 267.465 88.68ZM303.153 89.376C303.057 89.504 302.937 89.68 302.793 89.904C302.665 90.112 302.529 90.328 302.385 90.552C302.113 90.952 301.785 91.488 301.401 92.16C301.033 92.816 300.633 93.528 300.201 94.296C299.769 95.048 299.345 95.792 298.929 96.528C298.529 97.264 298.177 97.928 297.873 98.52C298.449 97.992 299.041 97.616 299.649 97.392C300.273 97.152 300.873 97.032 301.449 97.032C302.249 97.032 302.905 97.28 303.417 97.776C303.945 98.272 304.225 98.992 304.257 99.936C304.273 100.416 304.281 100.928 304.281 101.472C304.297 102 304.305 102.52 304.305 103.032C304.305 103.528 304.321 103.976 304.353 104.376C304.401 104.984 304.609 105.424 304.977 105.696C305.345 105.952 305.785 106.08 306.297 106.08C306.953 106.08 307.545 105.904 308.073 105.552C308.617 105.184 309.089 104.704 309.489 104.112C309.905 103.52 310.249 102.88 310.521 102.192C310.793 101.504 311.009 100.848 311.169 100.224L312.753 101.52C312.337 102.8 311.825 103.936 311.217 104.928C310.609 105.904 309.873 106.672 309.009 107.232C308.161 107.792 307.153 108.072 305.985 108.072C305.137 108.072 304.457 107.912 303.945 107.592C303.449 107.288 303.089 106.904 302.865 106.44C302.657 105.976 302.537 105.504 302.505 105.024C302.489 104.56 302.473 104.056 302.457 103.512C302.457 102.968 302.457 102.432 302.457 101.904C302.457 101.376 302.441 100.896 302.409 100.464C302.377 99.936 302.209 99.528 301.905 99.24C301.617 98.936 301.201 98.784 300.657 98.784C300.017 98.784 299.393 98.976 298.785 99.36C298.193 99.728 297.649 100.208 297.153 100.8C296.673 101.392 296.281 102.008 295.977 102.648C295.801 103 295.601 103.424 295.377 103.92C295.169 104.416 294.969 104.928 294.777 105.456C294.585 105.984 294.409 106.48 294.249 106.944C294.105 107.408 293.993 107.792 293.913 108.096L291.849 107.376C292.137 106.56 292.513 105.632 292.977 104.592C293.441 103.552 293.945 102.464 294.489 101.328C295.033 100.176 295.593 99.04 296.169 97.92C296.745 96.784 297.289 95.72 297.801 94.728C298.329 93.72 298.801 92.84 299.217 92.088C299.633 91.32 299.945 90.744 300.153 90.36C300.297 90.072 300.441 89.784 300.585 89.496C300.745 89.192 300.897 88.864 301.041 88.512L303.153 89.376ZM314.726 91.392C315.174 91.376 315.582 91.36 315.95 91.344C316.334 91.312 316.638 91.288 316.862 91.272C317.246 91.224 317.798 91.168 318.518 91.104C319.254 91.024 320.094 90.944 321.038 90.864C321.982 90.768 322.998 90.672 324.086 90.576C325.174 90.48 326.27 90.384 327.374 90.288C328.254 90.208 329.086 90.144 329.87 90.096C330.654 90.032 331.382 89.984 332.054 89.952C332.726 89.904 333.326 89.872 333.854 89.856V91.776C333.406 91.776 332.894 91.784 332.318 91.8C331.742 91.816 331.174 91.848 330.614 91.896C330.054 91.944 329.566 92.032 329.15 92.16C328.302 92.432 327.534 92.848 326.846 93.408C326.174 93.952 325.598 94.584 325.118 95.304C324.638 96.024 324.27 96.768 324.014 97.536C323.774 98.304 323.654 99.048 323.654 99.768C323.654 100.696 323.814 101.512 324.134 102.216C324.454 102.904 324.886 103.488 325.43 103.968C325.99 104.448 326.622 104.84 327.326 105.144C328.03 105.448 328.774 105.68 329.558 105.84C330.358 105.984 331.15 106.064 331.934 106.08L331.238 108.072C330.342 108.04 329.446 107.912 328.55 107.688C327.654 107.48 326.798 107.176 325.982 106.776C325.166 106.36 324.438 105.84 323.798 105.216C323.158 104.592 322.654 103.864 322.286 103.032C321.918 102.2 321.734 101.248 321.734 100.176C321.734 98.928 321.95 97.776 322.382 96.72C322.83 95.648 323.398 94.712 324.086 93.912C324.774 93.112 325.486 92.496 326.222 92.064C325.71 92.128 325.07 92.2 324.302 92.28C323.55 92.36 322.742 92.448 321.878 92.544C321.014 92.624 320.142 92.72 319.262 92.832C318.398 92.944 317.59 93.056 316.838 93.168C316.086 93.264 315.454 93.368 314.942 93.48L314.726 91.392ZM330.398 94.728C330.574 94.984 330.782 95.312 331.022 95.712C331.278 96.096 331.526 96.496 331.766 96.912C332.006 97.312 332.206 97.696 332.366 98.064L331.142 98.64C330.87 98.048 330.566 97.464 330.23 96.888C329.894 96.296 329.542 95.752 329.174 95.256L330.398 94.728ZM333.014 93.72C333.206 93.976 333.43 94.296 333.686 94.68C333.942 95.064 334.19 95.464 334.43 95.88C334.686 96.28 334.91 96.664 335.102 97.032L333.854 97.632C333.566 97.04 333.246 96.456 332.894 95.88C332.558 95.304 332.206 94.768 331.838 94.272L333.014 93.72ZM342.182 90.432C342.15 90.624 342.118 90.864 342.086 91.152C342.07 91.44 342.046 91.728 342.014 92.016C341.998 92.304 341.99 92.552 341.99 92.76C341.974 93.256 341.966 93.824 341.966 94.464C341.982 95.088 341.998 95.744 342.014 96.432C342.046 97.104 342.094 97.776 342.158 98.448C342.286 99.776 342.502 100.944 342.806 101.952C343.11 102.944 343.478 103.72 343.91 104.28C344.358 104.84 344.862 105.12 345.422 105.12C345.726 105.12 346.022 104.984 346.31 104.712C346.598 104.424 346.87 104.048 347.126 103.584C347.398 103.104 347.638 102.576 347.846 102C348.07 101.408 348.254 100.816 348.398 100.224L349.91 101.928C349.43 103.288 348.942 104.368 348.446 105.168C347.966 105.952 347.47 106.52 346.958 106.872C346.462 107.224 345.942 107.4 345.398 107.4C344.646 107.4 343.918 107.128 343.214 106.584C342.51 106.024 341.902 105.128 341.39 103.896C340.878 102.648 340.51 100.992 340.286 98.928C340.206 98.224 340.142 97.464 340.094 96.648C340.062 95.832 340.038 95.056 340.022 94.32C340.022 93.584 340.022 92.984 340.022 92.52C340.022 92.248 340.014 91.896 339.998 91.464C339.982 91.032 339.934 90.672 339.854 90.384L342.182 90.432ZM354.686 91.104C355.118 91.648 355.526 92.288 355.91 93.024C356.31 93.744 356.67 94.52 356.99 95.352C357.326 96.168 357.622 97.016 357.878 97.896C358.15 98.776 358.366 99.656 358.526 100.536C358.702 101.4 358.83 102.232 358.91 103.032L356.99 103.824C356.894 102.736 356.726 101.632 356.486 100.512C356.246 99.376 355.95 98.28 355.598 97.224C355.246 96.152 354.838 95.144 354.374 94.2C353.91 93.256 353.39 92.44 352.814 91.752L354.686 91.104ZM374.582 88.128C374.55 88.336 374.518 88.568 374.486 88.824C374.47 89.08 374.454 89.384 374.438 89.736C374.438 89.976 374.43 90.336 374.414 90.816C374.414 91.296 374.414 91.84 374.414 92.448C374.414 93.04 374.414 93.64 374.414 94.248C374.414 94.856 374.414 95.416 374.414 95.928C374.414 96.728 374.43 97.568 374.462 98.448C374.494 99.328 374.534 100.184 374.582 101.016C374.63 101.848 374.67 102.608 374.702 103.296C374.734 103.984 374.75 104.528 374.75 104.928C374.75 105.488 374.614 106.024 374.342 106.536C374.086 107.048 373.646 107.464 373.022 107.784C372.414 108.12 371.582 108.288 370.526 108.288C368.798 108.288 367.478 107.984 366.566 107.376C365.654 106.784 365.198 105.912 365.198 104.76C365.198 104.024 365.414 103.384 365.846 102.84C366.294 102.296 366.934 101.872 367.766 101.568C368.598 101.248 369.59 101.088 370.742 101.088C372.006 101.088 373.19 101.24 374.294 101.544C375.414 101.832 376.438 102.2 377.366 102.648C378.294 103.096 379.118 103.568 379.838 104.064C380.558 104.544 381.15 104.976 381.614 105.36L380.51 107.064C379.966 106.552 379.334 106.04 378.614 105.528C377.91 105.016 377.134 104.544 376.286 104.112C375.454 103.68 374.55 103.336 373.574 103.08C372.614 102.808 371.59 102.672 370.502 102.672C369.35 102.672 368.47 102.864 367.862 103.248C367.27 103.632 366.974 104.104 366.974 104.664C366.974 105.016 367.086 105.344 367.31 105.648C367.534 105.936 367.894 106.168 368.39 106.344C368.886 106.52 369.526 106.608 370.31 106.608C370.774 106.608 371.198 106.552 371.582 106.44C371.966 106.312 372.27 106.096 372.494 105.792C372.734 105.488 372.854 105.064 372.854 104.52C372.854 104.056 372.838 103.456 372.806 102.72C372.79 101.968 372.766 101.176 372.734 100.344C372.702 99.496 372.67 98.68 372.638 97.896C372.622 97.112 372.614 96.456 372.614 95.928C372.614 95.384 372.614 94.832 372.614 94.272C372.614 93.696 372.614 93.128 372.614 92.568C372.614 92.008 372.614 91.472 372.614 90.96C372.63 90.448 372.638 89.984 372.638 89.568C372.638 89.376 372.63 89.128 372.614 88.824C372.598 88.52 372.574 88.288 372.542 88.128H374.582ZM365.39 90.744C365.79 90.808 366.254 90.872 366.782 90.936C367.31 91 367.862 91.064 368.438 91.128C369.03 91.176 369.59 91.216 370.118 91.248C370.662 91.264 371.134 91.272 371.534 91.272C373.054 91.272 374.606 91.216 376.19 91.104C377.79 90.992 379.366 90.808 380.918 90.552L380.894 92.304C380.014 92.4 379.054 92.496 378.014 92.592C376.974 92.688 375.902 92.768 374.798 92.832C373.71 92.896 372.63 92.928 371.558 92.928C370.998 92.928 370.334 92.904 369.566 92.856C368.798 92.808 368.038 92.752 367.286 92.688C366.55 92.624 365.926 92.568 365.414 92.52L365.39 90.744ZM365.27 95.832C365.702 95.896 366.182 95.96 366.71 96.024C367.238 96.088 367.782 96.136 368.342 96.168C368.902 96.2 369.438 96.232 369.95 96.264C370.462 96.28 370.918 96.288 371.318 96.288C372.486 96.288 373.614 96.264 374.702 96.216C375.806 96.152 376.886 96.072 377.942 95.976C379.014 95.864 380.07 95.728 381.11 95.568L381.086 97.368C380.286 97.48 379.486 97.576 378.686 97.656C377.902 97.72 377.11 97.776 376.31 97.824C375.526 97.872 374.718 97.912 373.886 97.944C373.07 97.96 372.206 97.968 371.294 97.968C370.75 97.968 370.118 97.952 369.398 97.92C368.694 97.888 367.974 97.848 367.238 97.8C366.518 97.752 365.87 97.696 365.294 97.632L365.27 95.832ZM392.99 88.488C392.926 88.888 392.878 89.296 392.846 89.712C392.814 90.112 392.79 90.512 392.774 90.912C392.742 91.584 392.71 92.416 392.678 93.408C392.646 94.4 392.614 95.456 392.582 96.576C392.55 97.68 392.526 98.784 392.51 99.888C392.494 100.992 392.486 101.984 392.486 102.864C392.486 103.744 392.654 104.448 392.99 104.976C393.326 105.504 393.79 105.88 394.382 106.104C394.974 106.328 395.654 106.44 396.422 106.44C397.51 106.44 398.494 106.304 399.374 106.032C400.254 105.744 401.038 105.368 401.726 104.904C402.414 104.424 403.022 103.888 403.55 103.296C404.094 102.704 404.582 102.096 405.014 101.472L406.382 103.104C405.966 103.68 405.454 104.28 404.846 104.904C404.254 105.512 403.55 106.08 402.734 106.608C401.918 107.136 400.974 107.568 399.902 107.904C398.846 108.24 397.662 108.408 396.35 108.408C395.214 108.408 394.206 108.232 393.326 107.88C392.446 107.528 391.758 106.96 391.262 106.176C390.766 105.392 390.518 104.352 390.518 103.056C390.518 102.336 390.526 101.544 390.542 100.68C390.558 99.8 390.582 98.896 390.614 97.968C390.646 97.04 390.67 96.136 390.686 95.256C390.702 94.36 390.718 93.536 390.734 92.784C390.75 92.032 390.758 91.408 390.758 90.912C390.758 90.464 390.742 90.032 390.71 89.616C390.678 89.2 390.63 88.816 390.566 88.464L392.99 88.488ZM419.462 88.296C419.382 88.568 419.302 88.896 419.222 89.28C419.142 89.664 419.078 89.976 419.03 90.216C418.918 90.792 418.782 91.464 418.622 92.232C418.478 92.984 418.31 93.776 418.118 94.608C417.942 95.44 417.742 96.256 417.518 97.056C417.31 97.904 417.054 98.832 416.75 99.84C416.446 100.832 416.126 101.832 415.79 102.84C415.454 103.848 415.11 104.8 414.758 105.696C414.406 106.592 414.078 107.376 413.774 108.048L411.662 107.328C412.03 106.704 412.398 105.96 412.766 105.096C413.15 104.216 413.518 103.28 413.87 102.288C414.238 101.296 414.574 100.312 414.878 99.336C415.198 98.344 415.47 97.432 415.694 96.6C415.854 96.04 416.006 95.448 416.15 94.824C416.294 94.2 416.43 93.592 416.558 93C416.686 92.392 416.79 91.84 416.87 91.344C416.966 90.832 417.038 90.416 417.086 90.096C417.134 89.76 417.166 89.408 417.182 89.04C417.198 88.672 417.19 88.36 417.158 88.104L419.462 88.296ZM414.134 92.304C415.03 92.304 415.99 92.264 417.014 92.184C418.054 92.088 419.11 91.952 420.182 91.776C421.254 91.6 422.286 91.384 423.278 91.128V93.024C422.286 93.248 421.246 93.44 420.158 93.6C419.07 93.76 417.998 93.888 416.942 93.984C415.902 94.064 414.958 94.104 414.11 94.104C413.582 94.104 413.094 94.096 412.646 94.08C412.198 94.048 411.758 94.024 411.326 94.008L411.254 92.136C411.83 92.2 412.342 92.248 412.79 92.28C413.254 92.296 413.702 92.304 414.134 92.304ZM421.718 95.616C422.358 95.552 423.054 95.504 423.806 95.472C424.574 95.424 425.342 95.4 426.11 95.4C426.814 95.4 427.518 95.416 428.222 95.448C428.942 95.48 429.622 95.536 430.262 95.616L430.214 97.44C429.606 97.36 428.958 97.296 428.27 97.248C427.582 97.184 426.886 97.152 426.182 97.152C425.43 97.152 424.678 97.176 423.926 97.224C423.19 97.256 422.454 97.312 421.718 97.392V95.616ZM422.222 101.448C422.126 101.832 422.046 102.208 421.982 102.576C421.918 102.944 421.886 103.288 421.886 103.608C421.886 103.896 421.934 104.176 422.03 104.448C422.142 104.704 422.342 104.936 422.63 105.144C422.918 105.352 423.326 105.52 423.854 105.648C424.398 105.776 425.094 105.84 425.942 105.84C426.726 105.84 427.518 105.8 428.318 105.72C429.118 105.64 429.886 105.52 430.622 105.36L430.55 107.304C429.91 107.4 429.198 107.48 428.414 107.544C427.63 107.608 426.798 107.64 425.918 107.64C424.03 107.64 422.582 107.352 421.574 106.776C420.566 106.184 420.062 105.296 420.062 104.112C420.062 103.648 420.094 103.184 420.158 102.72C420.238 102.256 420.326 101.776 420.422 101.28L422.222 101.448ZM437.486 101.328C438.174 101.328 438.79 101.496 439.334 101.832C439.878 102.152 440.318 102.592 440.654 103.152C440.99 103.696 441.158 104.304 441.158 104.976C441.158 105.648 440.99 106.264 440.654 106.824C440.318 107.368 439.878 107.808 439.334 108.144C438.79 108.48 438.174 108.648 437.486 108.648C436.814 108.648 436.198 108.48 435.638 108.144C435.094 107.808 434.654 107.368 434.318 106.824C433.998 106.264 433.838 105.648 433.838 104.976C433.838 104.304 433.998 103.696 434.318 103.152C434.654 102.592 435.102 102.152 435.662 101.832C436.222 101.496 436.83 101.328 437.486 101.328ZM437.486 107.424C438.174 107.424 438.75 107.192 439.214 106.728C439.694 106.248 439.934 105.664 439.934 104.976C439.934 104.544 439.822 104.144 439.598 103.776C439.39 103.408 439.102 103.112 438.734 102.888C438.366 102.664 437.95 102.552 437.486 102.552C437.054 102.552 436.654 102.664 436.286 102.888C435.918 103.112 435.622 103.408 435.398 103.776C435.174 104.144 435.062 104.544 435.062 104.976C435.062 105.424 435.174 105.84 435.398 106.224C435.622 106.592 435.918 106.888 436.286 107.112C436.654 107.32 437.054 107.424 437.486 107.424Z" fill="black"/>
</svg>
