<svg width="477" height="45" viewBox="0 0 477 45" fill="none" xmlns="http://www.w3.org/2000/svg">
<path d="M40.032 43.872C39.808 43.296 39.568 42.672 39.312 42C39.056 41.36 38.768 40.704 38.448 40.032C36.88 40.256 35.072 40.496 33.024 40.752C31.008 41.008 28.944 41.248 26.832 41.472C24.72 41.696 22.768 41.888 20.976 42.048C19.184 42.24 17.76 42.368 16.704 42.432L15.168 35.328C15.744 35.296 16.448 35.264 17.28 35.232C18.144 35.168 19.088 35.104 20.112 35.04C20.528 33.92 20.96 32.608 21.408 31.104C21.856 29.568 22.288 28.016 22.704 26.448C23.152 24.88 23.504 23.472 23.76 22.224H15.216V15.408H45.744V22.224H31.44C30.928 24.08 30.304 26.144 29.568 28.416C28.864 30.656 28.192 32.672 27.552 34.464C28.96 34.336 30.32 34.208 31.632 34.08C32.976 33.952 34.192 33.84 35.28 33.744C33.904 31.28 32.576 29.28 31.296 27.744L37.344 24.528C38.08 25.36 38.896 26.48 39.792 27.888C40.72 29.264 41.632 30.752 42.528 32.352C43.456 33.92 44.272 35.44 44.976 36.912C45.712 38.352 46.272 39.584 46.656 40.608C46.08 40.832 45.376 41.136 44.544 41.52C43.744 41.904 42.928 42.304 42.096 42.72C41.296 43.136 40.608 43.52 40.032 43.872ZM7.248 44.208V22.56C6.736 23.328 6.224 24.016 5.712 24.624C4.912 23.984 3.984 23.328 2.928 22.656C1.904 21.952 0.928 21.344 0 20.832C1.216 19.52 2.368 17.968 3.456 16.176C4.544 14.352 5.536 12.448 6.432 10.464C7.328 8.44799 8.096 6.52799 8.736 4.70399C9.376 2.87999 9.824 1.31199 10.08 -8.58307e-06L16.944 1.63199C16.08 4.67199 15.04 7.64799 13.824 10.56V44.208H7.248ZM17.52 9.40799V2.87999H43.824V9.40799H17.52ZM61.296 42.912V30.288C59.344 32.24 57.728 34.08 56.448 35.808L51.168 30.816C52.384 29.888 53.856 28.656 55.584 27.12C57.344 25.584 59.248 24.016 61.296 22.416V16.656C59.92 16.976 58.608 17.28 57.36 17.568C56.112 17.824 55.088 18.016 54.288 18.144L52.848 11.76C53.712 11.728 54.912 11.6 56.448 11.376C58.016 11.12 59.632 10.816 61.296 10.464V1.67999H67.872V8.78399C68.384 8.62399 68.736 8.47999 68.928 8.35199L72.528 11.136L69.456 16.8C71.088 15.904 72.72 15.184 74.352 14.64C75.984 14.096 77.568 13.824 79.104 13.824C81.824 13.824 84.208 14.336 86.256 15.36C88.304 16.384 89.904 17.824 91.056 19.68C92.208 21.504 92.784 23.648 92.784 26.112C92.784 29.984 91.392 33.28 88.608 36C85.824 38.688 81.664 40.496 76.128 41.424C75.968 40.784 75.68 40.032 75.264 39.168C74.88 38.272 74.416 37.392 73.872 36.528C73.36 35.664 72.848 34.96 72.336 34.416C74.832 34.16 77.088 33.728 79.104 33.12C81.12 32.48 82.704 31.6 83.856 30.48C85.04 29.36 85.632 27.904 85.632 26.112C85.632 24.128 85.088 22.608 84 21.552C82.912 20.464 81.28 19.92 79.104 19.92C77.44 19.92 75.632 20.368 73.68 21.264C71.76 22.16 69.824 23.312 67.872 24.72V42.912H61.296ZM121.296 42.72C118.544 42.72 116.272 42.352 114.48 41.616C112.688 40.88 111.36 39.888 110.496 38.64C109.632 37.392 109.2 36 109.2 34.464C109.2 32.96 109.552 31.68 110.256 30.624C110.992 29.536 111.952 28.704 113.136 28.128C114.352 27.552 115.664 27.264 117.072 27.264C118.864 27.264 120.384 27.616 121.632 28.32C122.912 28.992 123.952 29.904 124.752 31.056C125.552 32.208 126.128 33.472 126.48 34.848C128.272 33.6 129.168 31.712 129.168 29.184C129.168 27.968 128.864 26.864 128.256 25.872C127.648 24.848 126.784 24.032 125.664 23.424C124.544 22.816 123.232 22.512 121.728 22.512C119.584 22.512 117.792 22.752 116.352 23.232C114.912 23.68 113.632 24.4 112.512 25.392C111.904 25.904 111.136 26.56 110.208 27.36C109.28 28.128 108.4 28.848 107.568 29.52L102.672 24.336C104.016 23.568 105.456 22.608 106.992 21.456C108.56 20.272 110.144 18.96 111.744 17.52C113.344 16.08 114.88 14.592 116.352 13.056C117.824 11.488 119.168 9.93599 120.384 8.39999C118.944 8.68799 117.472 8.97599 115.968 9.26399C114.496 9.51999 113.104 9.72799 111.792 9.88799C110.48 10.048 109.376 10.16 108.48 10.224L107.184 3.50399C108.016 3.56799 109.088 3.56799 110.4 3.50399C111.712 3.43999 113.12 3.34399 114.624 3.21599C116.16 3.05599 117.664 2.87999 119.136 2.68799C120.608 2.46399 121.92 2.23999 123.072 2.01599C124.224 1.75999 125.088 1.50399 125.664 1.24799L131.088 4.79999C130 6.84799 128.56 8.97599 126.768 11.184C124.976 13.392 123.04 15.536 120.96 17.616C121.312 17.488 121.696 17.408 122.112 17.376C122.56 17.312 123.008 17.28 123.456 17.28C126.176 17.28 128.512 17.776 130.464 18.768C132.448 19.76 133.968 21.152 135.024 22.944C136.112 24.736 136.656 26.816 136.656 29.184C136.656 31.68 136.032 33.952 134.784 36C133.536 38.048 131.76 39.68 129.456 40.896C127.184 42.112 124.464 42.72 121.296 42.72ZM119.712 36.24H120.288C120.064 35.28 119.696 34.496 119.184 33.888C118.672 33.28 117.968 32.976 117.072 32.976C116.752 32.976 116.448 33.072 116.16 33.264C115.872 33.424 115.728 33.728 115.728 34.176C115.728 34.688 116.016 35.136 116.592 35.52C117.2 35.872 118.24 36.112 119.712 36.24ZM161.328 43.68C158.352 43.552 156.016 42.72 154.32 41.184C152.656 39.68 151.84 37.728 151.872 35.328C151.904 33.792 152.416 32.432 153.408 31.248C154.4 30.032 155.728 29.104 157.392 28.464C159.088 27.792 161.008 27.52 163.152 27.648C163.536 27.68 163.92 27.712 164.304 27.744C164.72 27.744 165.12 27.776 165.504 27.84L165.408 23.664C164.96 23.696 164.512 23.712 164.064 23.712C163.648 23.712 163.216 23.712 162.768 23.712C160.592 23.712 158.88 23.552 157.632 23.232C156.416 22.88 155.44 22.304 154.704 21.504C154 20.672 153.296 19.536 152.592 18.096L158.112 15.36C158.432 15.904 158.752 16.32 159.072 16.608C159.392 16.896 159.84 17.088 160.416 17.184C161.024 17.248 161.856 17.28 162.912 17.28C163.296 17.28 163.68 17.28 164.064 17.28C164.448 17.28 164.848 17.264 165.264 17.232L165.168 13.008C162.8 13.136 160.592 13.232 158.544 13.296C156.496 13.328 154.912 13.328 153.792 13.296L153.504 6.71999C154.624 6.81599 156.224 6.86399 158.304 6.86399C160.416 6.86399 162.672 6.79999 165.072 6.67199C165.04 5.48799 165.008 4.39999 164.976 3.40799C164.976 2.38399 164.976 1.48799 164.976 0.719991H171.888C171.824 2.19199 171.824 4.06399 171.888 6.33599C174.128 6.17599 176.16 5.99999 177.984 5.80799C179.808 5.58399 181.136 5.35999 181.968 5.13599V11.568C181.136 11.728 179.808 11.904 177.984 12.096C176.192 12.256 174.192 12.416 171.984 12.576C171.984 13.28 171.984 13.984 171.984 14.688C172.016 15.36 172.048 16.048 172.08 16.752C174.032 16.56 175.856 16.32 177.552 16.032C179.248 15.744 180.592 15.44 181.584 15.12V21.984C180.368 22.272 178.944 22.528 177.312 22.752C175.712 22.944 174.016 23.12 172.224 23.28L172.368 29.184C174.736 29.888 176.992 30.768 179.136 31.824C181.312 32.848 183.376 33.968 185.328 35.184C184.752 35.6 184.16 36.176 183.552 36.912C182.944 37.648 182.384 38.4 181.872 39.168C181.392 39.936 181.024 40.608 180.768 41.184C178.176 39.008 175.408 37.264 172.464 35.952C172.304 38.448 171.328 40.384 169.536 41.76C167.776 43.168 165.04 43.808 161.328 43.68ZM161.52 37.392C164.24 37.52 165.6 36.656 165.6 34.8V33.792C164.992 33.696 164.4 33.616 163.824 33.552C163.248 33.488 162.672 33.456 162.096 33.456C160.944 33.456 160.048 33.648 159.408 34.032C158.8 34.384 158.496 34.848 158.496 35.424C158.496 36.64 159.504 37.296 161.52 37.392ZM227.088 42.96C223.6 42.544 220.528 41.552 217.872 39.984C215.248 38.384 213.2 36.288 211.728 33.696C210.256 31.104 209.52 28.128 209.52 24.768C209.52 22.528 210 20.336 210.96 18.192C211.952 16.016 213.344 14.016 215.136 12.192C212.672 12.608 210.256 13.04 207.888 13.488C205.552 13.904 203.44 14.304 201.552 14.688C199.696 15.072 198.224 15.424 197.136 15.744L195.6 8.11199C196.624 8.07999 198.08 7.96799 199.968 7.77599C201.888 7.58399 204.064 7.32799 206.496 7.00799C208.928 6.65599 211.44 6.28799 214.032 5.90399C216.656 5.48799 219.184 5.07199 221.616 4.65599C224.048 4.20799 226.224 3.77599 228.144 3.35999C230.064 2.94399 231.552 2.57599 232.608 2.25599L234.528 9.40799C233.984 9.43999 233.312 9.51999 232.512 9.64799C231.744 9.74399 230.88 9.85599 229.92 9.98399C228.288 10.176 226.688 10.672 225.12 11.472C223.552 12.24 222.128 13.28 220.848 14.592C219.6 15.872 218.608 17.376 217.872 19.104C217.136 20.8 216.768 22.688 216.768 24.768C216.768 27.136 217.376 29.072 218.592 30.576C219.808 32.08 221.488 33.248 223.632 34.08C225.776 34.912 228.224 35.488 230.976 35.808C230.4 36.416 229.824 37.168 229.248 38.064C228.704 38.96 228.24 39.84 227.856 40.704C227.472 41.6 227.216 42.352 227.088 42.96ZM231.12 23.952C230.512 22.928 229.744 21.888 228.816 20.832C227.92 19.776 227.104 18.896 226.368 18.192L229.44 15.696C229.888 16.08 230.432 16.624 231.072 17.328C231.712 18.032 232.336 18.752 232.944 19.488C233.552 20.224 234.032 20.848 234.384 21.36L231.12 23.952ZM235.728 20.208C235.12 19.216 234.352 18.192 233.424 17.136C232.496 16.048 231.664 15.168 230.928 14.496L234.048 12C234.496 12.384 235.04 12.928 235.68 13.632C236.32 14.336 236.944 15.056 237.552 15.792C238.16 16.528 238.624 17.152 238.944 17.664L235.728 20.208ZM251.472 43.536C250.8 42.448 249.968 41.328 248.976 40.176C248.016 38.992 246.976 37.872 245.856 36.816C244.768 35.728 243.696 34.832 242.64 34.128L247.104 30.096C247.84 30.576 248.64 31.184 249.504 31.92C250.4 32.656 251.296 33.456 252.192 34.32C253.12 35.152 253.968 35.968 254.736 36.768C255.504 37.568 256.128 38.272 256.608 38.88L251.472 43.536ZM296.4 44.016V21.072C295.888 21.744 295.36 22.368 294.816 22.944C294.304 23.52 293.792 24.048 293.28 24.528C292.64 23.792 291.824 23.024 290.832 22.224C289.84 21.424 288.928 20.768 288.096 20.256C288.96 19.584 289.888 18.624 290.88 17.376C291.872 16.128 292.848 14.752 293.808 13.248C294.8 11.712 295.728 10.16 296.592 8.59199C297.456 6.99199 298.192 5.48799 298.8 4.07999C299.408 2.67199 299.824 1.48799 300.048 0.52799L306.48 2.73599C305.808 5.00799 304.8 7.45599 303.456 10.08V17.376C304.384 16.224 305.296 14.896 306.192 13.392C307.12 11.856 307.968 10.288 308.736 8.68799C309.536 7.05599 310.208 5.48799 310.752 3.98399C311.328 2.47999 311.728 1.16799 311.952 0.0479908L318.48 1.96799C318 3.82399 317.344 5.75999 316.512 7.77599H333.696V14.304H321.456V18.384H332.112V24.576H321.456V28.608H332.112V35.136H321.456V43.872H314.4V14.304H313.392C312.4 16.064 311.344 17.728 310.224 19.296C309.136 20.832 308.032 22.16 306.912 23.28C306.496 22.832 305.984 22.368 305.376 21.888C304.768 21.408 304.128 20.96 303.456 20.544V44.016H296.4ZM356.784 44.256C356.208 43.328 355.408 42.288 354.384 41.136C353.36 40.016 352.368 39.136 351.408 38.496C355.92 36.896 359.36 34.432 361.728 31.104C364.096 27.744 365.28 23.584 365.28 18.624C365.28 15.936 364.784 14.016 363.792 12.864C362.8 11.712 361.616 11.184 360.24 11.28C359.12 11.344 358.08 11.952 357.12 13.104C356.192 14.256 355.552 16 355.2 18.336C354.848 20.64 354.944 23.568 355.488 27.12C354.88 27.152 354.144 27.248 353.28 27.408C352.416 27.568 351.584 27.744 350.784 27.936C349.984 28.128 349.376 28.304 348.96 28.464C348.736 27.28 348.528 25.76 348.336 23.904C348.176 22.048 348.048 20.032 347.952 17.856C347.856 15.648 347.792 13.456 347.76 11.28C347.728 9.10399 347.728 7.10399 347.76 5.27999C347.824 3.42399 347.92 1.95199 348.048 0.863992L355.248 1.48799C354.992 2.60799 354.768 4.03199 354.576 5.75999C354.384 7.45599 354.24 9.15199 354.144 10.848C354.944 9.05599 356.016 7.61599 357.36 6.52799C358.704 5.43999 360.208 4.89599 361.872 4.89599C363.984 4.89599 365.84 5.43999 367.44 6.52799C369.072 7.58399 370.336 9.13599 371.232 11.184C372.16 13.232 372.624 15.712 372.624 18.624C372.624 22.944 371.984 26.72 370.704 29.952C369.456 33.184 367.648 35.968 365.28 38.304C362.944 40.608 360.112 42.592 356.784 44.256ZM403.92 35.952C403.184 35.024 402.32 34.192 401.328 33.456C400.368 32.688 399.424 32.096 398.496 31.68C400.576 30.144 402.368 28.24 403.872 25.968C405.376 23.696 406.576 21.296 407.472 18.768C408.368 16.208 408.928 13.792 409.152 11.52L412.464 11.952C412.368 10.896 412.32 9.79199 412.32 8.63999H404.256V1.87199H419.088C418.736 5.99999 418.832 9.87199 419.376 13.488C419.92 17.072 421.072 20.336 422.832 23.28C424.624 26.192 427.136 28.72 430.368 30.864C429.824 31.216 429.216 31.696 428.544 32.304C427.872 32.88 427.232 33.488 426.624 34.128C426.016 34.736 425.52 35.296 425.136 35.808C422.544 33.92 420.272 31.712 418.32 29.184C416.4 26.624 414.928 23.632 413.904 20.208C412.88 23.408 411.504 26.384 409.776 29.136C408.048 31.888 406.096 34.16 403.92 35.952ZM387.552 43.872L384.768 36.912C385.344 36.72 386.048 36.48 386.88 36.192C387.744 35.872 388.576 35.552 389.376 35.232C390.208 34.912 390.832 34.656 391.248 34.464V23.424H386.208V17.328H397.92V33.408C397.92 34.816 399.072 35.824 401.376 36.432C403.68 37.04 407.28 37.344 412.176 37.344C416.496 37.344 420.208 37.28 423.312 37.152C426.448 37.024 428.896 36.8 430.656 36.48C430.464 36.96 430.256 37.648 430.032 38.544C429.808 39.44 429.616 40.352 429.456 41.28C429.296 42.24 429.2 43.056 429.168 43.728H412.176C408.688 43.728 405.824 43.552 403.584 43.2C401.376 42.88 399.584 42.4 398.208 41.76C396.864 41.12 395.76 40.368 394.896 39.504C394.288 39.92 393.536 40.4 392.64 40.944C391.776 41.488 390.896 42.016 390 42.528C389.104 43.04 388.288 43.488 387.552 43.872ZM395.136 12.528C394.56 11.824 393.792 11.024 392.832 10.128C391.872 9.19999 390.864 8.28799 389.808 7.39199C388.784 6.49599 387.824 5.75999 386.928 5.18399L391.392 0.671991C391.968 0.991991 392.64 1.45599 393.408 2.06399C394.176 2.63999 394.976 3.26399 395.808 3.93599C396.64 4.60799 397.408 5.27999 398.112 5.95199C398.848 6.62399 399.44 7.19999 399.888 7.67999C399.472 7.99999 398.944 8.46399 398.304 9.07199C397.696 9.64799 397.104 10.256 396.528 10.896C395.952 11.504 395.488 12.048 395.136 12.528ZM454.608 43.152C451.76 43.152 449.296 42.992 447.216 42.672C445.168 42.352 443.584 41.712 442.464 40.752C441.376 39.824 440.832 38.432 440.832 36.576C440.832 35.68 441.008 34.752 441.36 33.792C441.744 32.832 442.192 31.856 442.704 30.864C441.616 30.768 440.624 30.448 439.728 29.904C438.544 29.072 437.712 27.92 437.232 26.448C436.784 24.944 436.736 23.424 437.088 21.888C437.536 20.064 438.368 18.624 439.584 17.568C440.832 16.48 442.176 15.728 443.616 15.312C443.872 15.248 444.112 15.184 444.336 15.12C444.592 15.056 444.832 15.008 445.056 14.976V12.96C443.392 13.056 441.792 13.136 440.256 13.2C438.752 13.232 437.424 13.248 436.272 13.248L435.792 6.95999C436.72 7.02399 438.016 7.05599 439.68 7.05599C441.344 7.02399 443.136 6.95999 445.056 6.86399V1.24799H451.632V6.33599C453.072 6.17599 454.4 6.01599 455.616 5.85599C456.832 5.66399 457.824 5.45599 458.592 5.23199L458.832 11.568C457.904 11.76 456.816 11.936 455.568 12.096C454.352 12.224 453.04 12.352 451.632 12.48V16.896C452.624 17.824 453.264 18.976 453.552 20.352C453.872 21.696 453.728 23.104 453.12 24.576C452.608 25.824 451.952 26.944 451.152 27.936C450.384 28.896 449.696 29.824 449.088 30.72C448.48 31.616 448.176 32.576 448.176 33.6C448.176 34.432 448.32 35.04 448.608 35.424C448.896 35.776 449.504 36 450.432 36.096C451.36 36.192 452.752 36.24 454.608 36.24C457.072 36.24 458.992 36.048 460.368 35.664C461.744 35.28 462.736 34.656 463.344 33.792C463.952 32.928 464.32 31.792 464.448 30.384C464.576 28.944 464.608 27.184 464.544 25.104C465.056 25.424 465.76 25.744 466.656 26.064C467.552 26.352 468.464 26.608 469.392 26.832C470.32 27.024 471.088 27.136 471.696 27.168C471.76 30.848 471.28 33.872 470.256 36.24C469.232 38.608 467.472 40.352 464.976 41.472C462.48 42.592 459.024 43.152 454.608 43.152ZM472.32 23.184C471.584 22.32 470.608 21.36 469.392 20.304C468.208 19.248 466.944 18.24 465.6 17.28C464.288 16.32 463.04 15.552 461.856 14.976L466.272 9.88799C467.328 10.4 468.512 11.104 469.824 12C471.136 12.864 472.416 13.792 473.664 14.784C474.944 15.776 476 16.704 476.832 17.568L472.32 23.184ZM443.184 25.488C443.632 25.744 444.144 25.712 444.72 25.392C445.328 25.072 445.792 24.4 446.112 23.376C446.336 22.64 446.336 22.016 446.112 21.504C445.888 20.96 445.568 20.624 445.152 20.496C444.704 20.336 444.208 20.464 443.664 20.88C443.152 21.264 442.768 22.032 442.512 23.184C442.384 23.76 442.384 24.256 442.512 24.672C442.672 25.056 442.896 25.328 443.184 25.488Z" fill="black"/>
</svg>
