<svg width="267" height="22" viewBox="0 0 267 22" fill="none" xmlns="http://www.w3.org/2000/svg">
<path d="M2.12216 18H0.460227L5.26705 4.90909H6.90341L11.7102 18H10.0483L6.13636 6.98011H6.03409L2.12216 18ZM2.7358 12.8864H9.43466V14.2926H2.7358V12.8864ZM13.7493 18V4.90909H15.2578V9.74148H15.3857C15.4964 9.57102 15.6499 9.35369 15.8459 9.08949C16.0462 8.82102 16.3317 8.58239 16.7024 8.37358C17.0774 8.16051 17.5845 8.05398 18.2237 8.05398C19.0504 8.05398 19.7791 8.26065 20.4098 8.67401C21.0405 9.08736 21.5327 9.6733 21.8864 10.4318C22.2401 11.1903 22.4169 12.0852 22.4169 13.1165C22.4169 14.1562 22.2401 15.0575 21.8864 15.8203C21.5327 16.5788 21.0426 17.1669 20.4162 17.5845C19.7898 17.9979 19.0675 18.2045 18.2493 18.2045C17.6186 18.2045 17.1136 18.1001 16.7344 17.8913C16.3551 17.6783 16.0632 17.4375 15.8587 17.169C15.6541 16.8963 15.4964 16.6705 15.3857 16.4915H15.2067V18H13.7493ZM15.2322 13.0909C15.2322 13.8324 15.3409 14.4865 15.5582 15.0533C15.7756 15.6158 16.093 16.0568 16.5107 16.3764C16.9283 16.6918 17.4396 16.8494 18.0447 16.8494C18.6754 16.8494 19.2017 16.6832 19.6236 16.3509C20.0497 16.0142 20.3693 15.5625 20.5824 14.9957C20.7997 14.4247 20.9084 13.7898 20.9084 13.0909C20.9084 12.4006 20.8018 11.7784 20.5888 11.2244C20.38 10.6662 20.0625 10.2251 19.6364 9.90128C19.2145 9.57315 18.6839 9.40909 18.0447 9.40909C17.4311 9.40909 16.9155 9.56463 16.4979 9.87571C16.0803 10.1825 15.7649 10.6129 15.5518 11.1669C15.3388 11.7166 15.2322 12.358 15.2322 13.0909ZM28.7131 18.2045C27.8267 18.2045 27.049 17.9936 26.38 17.5717C25.7152 17.1499 25.1953 16.5597 24.8203 15.8011C24.4496 15.0426 24.2642 14.1562 24.2642 13.142C24.2642 12.1193 24.4496 11.2266 24.8203 10.4638C25.1953 9.70099 25.7152 9.10866 26.38 8.68679C27.049 8.26491 27.8267 8.05398 28.7131 8.05398C29.5994 8.05398 30.375 8.26491 31.0398 8.68679C31.7088 9.10866 32.2287 9.70099 32.5994 10.4638C32.9744 11.2266 33.1619 12.1193 33.1619 13.142C33.1619 14.1562 32.9744 15.0426 32.5994 15.8011C32.2287 16.5597 31.7088 17.1499 31.0398 17.5717C30.375 17.9936 29.5994 18.2045 28.7131 18.2045ZM28.7131 16.8494C29.3864 16.8494 29.9403 16.6768 30.375 16.3317C30.8097 15.9865 31.1314 15.5327 31.3402 14.9702C31.549 14.4077 31.6534 13.7983 31.6534 13.142C31.6534 12.4858 31.549 11.8743 31.3402 11.3075C31.1314 10.7408 30.8097 10.2827 30.375 9.93324C29.9403 9.58381 29.3864 9.40909 28.7131 9.40909C28.0398 9.40909 27.4858 9.58381 27.0511 9.93324C26.6165 10.2827 26.2947 10.7408 26.0859 11.3075C25.8771 11.8743 25.7727 12.4858 25.7727 13.142C25.7727 13.7983 25.8771 14.4077 26.0859 14.9702C26.2947 15.5327 26.6165 15.9865 27.0511 16.3317C27.4858 16.6768 28.0398 16.8494 28.7131 16.8494ZM41.6522 13.9858V8.18182H43.1607V18H41.6522V16.3381H41.5499C41.3198 16.8366 40.9618 17.2607 40.476 17.6101C39.9902 17.9553 39.3766 18.1278 38.6351 18.1278C38.0215 18.1278 37.476 17.9936 36.9988 17.7251C36.5215 17.4524 36.1465 17.0433 35.8738 16.4979C35.601 15.9482 35.4647 15.2557 35.4647 14.4205V8.18182H36.9732V14.3182C36.9732 15.0341 37.1735 15.6051 37.574 16.0312C37.9789 16.4574 38.4945 16.6705 39.1209 16.6705C39.4959 16.6705 39.8773 16.5746 40.2651 16.3828C40.6571 16.1911 40.9853 15.897 41.2495 15.5007C41.5179 15.1044 41.6522 14.5994 41.6522 13.9858ZM50.1935 8.18182V9.46023H45.1055V8.18182H50.1935ZM46.5884 5.82955H48.0969V15.1875C48.0969 15.6136 48.1587 15.9332 48.2823 16.1463C48.4102 16.3551 48.5721 16.4957 48.7681 16.5682C48.9684 16.6364 49.1793 16.6705 49.4009 16.6705C49.5671 16.6705 49.7035 16.6619 49.81 16.6449C49.9165 16.6236 50.0018 16.6065 50.0657 16.5938L50.3725 17.9489C50.2702 17.9872 50.1275 18.0256 49.9442 18.0639C49.761 18.1065 49.5288 18.1278 49.2475 18.1278C48.8214 18.1278 48.4038 18.0362 47.9947 17.853C47.5898 17.6697 47.2532 17.3906 46.9847 17.0156C46.7205 16.6406 46.5884 16.1676 46.5884 15.5966V5.82955Z" fill="black"/>
<path d="M102.963 18L99.3835 4.90909H100.994L103.73 15.571H103.858L106.645 4.90909H108.435L111.222 15.571H111.349L114.085 4.90909H115.696L112.116 18H110.48L107.591 7.56818H107.489L104.599 18H102.963ZM120.541 18.2045C119.655 18.2045 118.877 17.9936 118.208 17.5717C117.543 17.1499 117.023 16.5597 116.648 15.8011C116.278 15.0426 116.092 14.1562 116.092 13.142C116.092 12.1193 116.278 11.2266 116.648 10.4638C117.023 9.70099 117.543 9.10866 118.208 8.68679C118.877 8.26491 119.655 8.05398 120.541 8.05398C121.428 8.05398 122.203 8.26491 122.868 8.68679C123.537 9.10866 124.057 9.70099 124.428 10.4638C124.803 11.2266 124.99 12.1193 124.99 13.142C124.99 14.1562 124.803 15.0426 124.428 15.8011C124.057 16.5597 123.537 17.1499 122.868 17.5717C122.203 17.9936 121.428 18.2045 120.541 18.2045ZM120.541 16.8494C121.214 16.8494 121.768 16.6768 122.203 16.3317C122.638 15.9865 122.96 15.5327 123.168 14.9702C123.377 14.4077 123.482 13.7983 123.482 13.142C123.482 12.4858 123.377 11.8743 123.168 11.3075C122.96 10.7408 122.638 10.2827 122.203 9.93324C121.768 9.58381 121.214 9.40909 120.541 9.40909C119.868 9.40909 119.314 9.58381 118.879 9.93324C118.445 10.2827 118.123 10.7408 117.914 11.3075C117.705 11.8743 117.601 12.4858 117.601 13.142C117.601 13.7983 117.705 14.4077 117.914 14.9702C118.123 15.5327 118.445 15.9865 118.879 16.3317C119.314 16.6768 119.868 16.8494 120.541 16.8494ZM127.293 18V8.18182H128.75V9.66477H128.852C129.031 9.17898 129.355 8.7848 129.824 8.48224C130.293 8.17969 130.821 8.02841 131.409 8.02841C131.52 8.02841 131.659 8.03054 131.825 8.0348C131.991 8.03906 132.117 8.04545 132.202 8.05398V9.58807C132.151 9.57528 132.034 9.55611 131.85 9.53054C131.671 9.50071 131.482 9.4858 131.281 9.4858C130.804 9.4858 130.378 9.58594 130.003 9.78622C129.632 9.98224 129.338 10.255 129.121 10.6044C128.908 10.9496 128.801 11.3437 128.801 11.7869V18H127.293ZM135.396 14.4205L135.371 12.554H135.678L139.973 8.18182H141.839L137.263 12.8097H137.135L135.396 14.4205ZM133.99 18V4.90909H135.499V18H133.99ZM140.229 18L136.393 13.142L137.467 12.0938L142.146 18H140.229ZM150.736 10.3807L149.381 10.7642C149.295 10.5384 149.17 10.3189 149.003 10.1058C148.841 9.88849 148.62 9.70952 148.339 9.56889C148.057 9.42827 147.697 9.35795 147.258 9.35795C146.657 9.35795 146.157 9.49645 145.756 9.77344C145.36 10.0462 145.162 10.3935 145.162 10.8153C145.162 11.1903 145.298 11.4865 145.571 11.7038C145.844 11.9212 146.27 12.1023 146.849 12.2472L148.307 12.6051C149.184 12.8182 149.839 13.1442 150.269 13.5831C150.699 14.0178 150.915 14.5781 150.915 15.2642C150.915 15.8267 150.753 16.3295 150.429 16.7727C150.109 17.2159 149.662 17.5653 149.086 17.821C148.511 18.0767 147.842 18.2045 147.079 18.2045C146.078 18.2045 145.249 17.9872 144.593 17.5526C143.937 17.1179 143.521 16.483 143.346 15.6477L144.778 15.2898C144.915 15.8182 145.172 16.2145 145.552 16.4787C145.935 16.7429 146.436 16.875 147.054 16.875C147.757 16.875 148.315 16.7259 148.729 16.4276C149.146 16.125 149.355 15.7628 149.355 15.3409C149.355 15 149.236 14.7145 148.997 14.4844C148.758 14.25 148.392 14.0753 147.898 13.9602L146.261 13.5767C145.362 13.3636 144.702 13.0334 144.28 12.5859C143.862 12.1342 143.653 11.5696 143.653 10.892C143.653 10.3381 143.809 9.84801 144.12 9.42188C144.435 8.99574 144.863 8.66122 145.405 8.41832C145.95 8.17543 146.568 8.05398 147.258 8.05398C148.23 8.05398 148.993 8.26705 149.547 8.69318C150.105 9.11932 150.501 9.68182 150.736 10.3807Z" fill="black"/>
<path d="M211.119 9H209.534C209.44 8.54403 209.276 8.14347 209.042 7.7983C208.812 7.45312 208.531 7.16335 208.198 6.92898C207.87 6.69034 207.506 6.51136 207.105 6.39205C206.705 6.27273 206.287 6.21307 205.852 6.21307C205.06 6.21307 204.342 6.41335 203.698 6.81392C203.059 7.21449 202.55 7.80469 202.17 8.58452C201.795 9.36435 201.608 10.321 201.608 11.4545C201.608 12.5881 201.795 13.5447 202.17 14.3246C202.55 15.1044 203.059 15.6946 203.698 16.0952C204.342 16.4957 205.06 16.696 205.852 16.696C206.287 16.696 206.705 16.6364 207.105 16.517C207.506 16.3977 207.87 16.2209 208.198 15.9865C208.531 15.7479 208.812 15.456 209.042 15.1108C209.276 14.7614 209.44 14.3608 209.534 13.9091H211.119C211 14.5781 210.783 15.1768 210.467 15.7053C210.152 16.2337 209.76 16.6832 209.291 17.054C208.822 17.4205 208.296 17.6996 207.712 17.8913C207.133 18.0831 206.513 18.179 205.852 18.179C204.736 18.179 203.743 17.9062 202.874 17.3608C202.004 16.8153 201.32 16.0398 200.822 15.0341C200.323 14.0284 200.074 12.8352 200.074 11.4545C200.074 10.0739 200.323 8.88068 200.822 7.875C201.32 6.86932 202.004 6.09375 202.874 5.5483C203.743 5.00284 204.736 4.73011 205.852 4.73011C206.513 4.73011 207.133 4.82599 207.712 5.01776C208.296 5.20952 208.822 5.49077 209.291 5.86151C209.76 6.22798 210.152 6.67543 210.467 7.20384C210.783 7.72798 211 8.3267 211.119 9ZM217.465 18.2045C216.579 18.2045 215.801 17.9936 215.132 17.5717C214.467 17.1499 213.947 16.5597 213.572 15.8011C213.202 15.0426 213.016 14.1562 213.016 13.142C213.016 12.1193 213.202 11.2266 213.572 10.4638C213.947 9.70099 214.467 9.10866 215.132 8.68679C215.801 8.26491 216.579 8.05398 217.465 8.05398C218.351 8.05398 219.127 8.26491 219.792 8.68679C220.461 9.10866 220.981 9.70099 221.351 10.4638C221.726 11.2266 221.914 12.1193 221.914 13.142C221.914 14.1562 221.726 15.0426 221.351 15.8011C220.981 16.5597 220.461 17.1499 219.792 17.5717C219.127 17.9936 218.351 18.2045 217.465 18.2045ZM217.465 16.8494C218.138 16.8494 218.692 16.6768 219.127 16.3317C219.562 15.9865 219.883 15.5327 220.092 14.9702C220.301 14.4077 220.405 13.7983 220.405 13.142C220.405 12.4858 220.301 11.8743 220.092 11.3075C219.883 10.7408 219.562 10.2827 219.127 9.93324C218.692 9.58381 218.138 9.40909 217.465 9.40909C216.792 9.40909 216.238 9.58381 215.803 9.93324C215.368 10.2827 215.047 10.7408 214.838 11.3075C214.629 11.8743 214.525 12.4858 214.525 13.142C214.525 13.7983 214.629 14.4077 214.838 14.9702C215.047 15.5327 215.368 15.9865 215.803 16.3317C216.238 16.6768 216.792 16.8494 217.465 16.8494ZM225.725 12.0938V18H224.217V8.18182H225.674V9.71591H225.802C226.032 9.21733 226.381 8.81676 226.85 8.5142C227.319 8.20739 227.924 8.05398 228.665 8.05398C229.33 8.05398 229.912 8.19034 230.411 8.46307C230.909 8.73153 231.297 9.14062 231.574 9.69034C231.851 10.2358 231.989 10.9261 231.989 11.7614V18H230.481V11.8636C230.481 11.0923 230.281 10.4915 229.88 10.0611C229.479 9.62642 228.93 9.40909 228.231 9.40909C227.749 9.40909 227.319 9.51349 226.94 9.7223C226.565 9.93111 226.268 10.2358 226.051 10.6364C225.834 11.0369 225.725 11.5227 225.725 12.0938ZM239.016 8.18182V9.46023H233.928V8.18182H239.016ZM235.411 5.82955H236.919V15.1875C236.919 15.6136 236.981 15.9332 237.105 16.1463C237.232 16.3551 237.394 16.4957 237.59 16.5682C237.791 16.6364 238.002 16.6705 238.223 16.6705C238.389 16.6705 238.526 16.6619 238.632 16.6449C238.739 16.6236 238.824 16.6065 238.888 16.5938L239.195 17.9489C239.093 17.9872 238.95 18.0256 238.767 18.0639C238.583 18.1065 238.351 18.1278 238.07 18.1278C237.644 18.1278 237.226 18.0362 236.817 17.853C236.412 17.6697 236.075 17.3906 235.807 17.0156C235.543 16.6406 235.411 16.1676 235.411 15.5966V5.82955ZM244.174 18.2301C243.552 18.2301 242.987 18.1129 242.48 17.8786C241.973 17.6399 241.57 17.2969 241.272 16.8494C240.974 16.3977 240.825 15.8523 240.825 15.2131C240.825 14.6506 240.936 14.1946 241.157 13.8452C241.379 13.4915 241.675 13.2145 242.046 13.0142C242.416 12.8139 242.825 12.6648 243.273 12.5668C243.725 12.4645 244.178 12.3835 244.634 12.3239C245.231 12.2472 245.715 12.1896 246.085 12.1513C246.46 12.1087 246.733 12.0384 246.904 11.9403C247.078 11.8423 247.166 11.6719 247.166 11.429V11.3778C247.166 10.7472 246.993 10.2571 246.648 9.90767C246.307 9.55824 245.789 9.38352 245.095 9.38352C244.374 9.38352 243.81 9.54119 243.401 9.85653C242.992 10.1719 242.704 10.5085 242.538 10.8665L241.106 10.3551C241.362 9.75852 241.703 9.29403 242.129 8.96165C242.559 8.625 243.028 8.39062 243.535 8.25852C244.046 8.12216 244.549 8.05398 245.044 8.05398C245.359 8.05398 245.721 8.09233 246.13 8.16903C246.544 8.24148 246.942 8.39276 247.325 8.62287C247.713 8.85298 248.035 9.20028 248.291 9.66477C248.546 10.1293 248.674 10.7514 248.674 11.5312V18H247.166V16.6705H247.089C246.987 16.8835 246.816 17.1115 246.578 17.3544C246.339 17.5973 246.021 17.804 245.625 17.9744C245.229 18.1449 244.745 18.2301 244.174 18.2301ZM244.404 16.875C245.001 16.875 245.504 16.7578 245.913 16.5234C246.326 16.2891 246.637 15.9865 246.846 15.6158C247.059 15.245 247.166 14.8551 247.166 14.446V13.0653C247.102 13.142 246.961 13.2124 246.744 13.2763C246.531 13.3359 246.284 13.3892 246.002 13.4361C245.725 13.4787 245.455 13.517 245.191 13.5511C244.931 13.581 244.72 13.6065 244.558 13.6278C244.166 13.679 243.799 13.7621 243.458 13.8771C243.122 13.9879 242.849 14.1562 242.64 14.3821C242.436 14.6037 242.333 14.9062 242.333 15.2898C242.333 15.8139 242.527 16.2102 242.915 16.4787C243.307 16.7429 243.803 16.875 244.404 16.875ZM255.416 18.2045C254.496 18.2045 253.703 17.9872 253.038 17.5526C252.374 17.1179 251.862 16.5192 251.504 15.7564C251.146 14.9936 250.967 14.1222 250.967 13.142C250.967 12.1449 251.151 11.2649 251.517 10.5021C251.888 9.73509 252.403 9.13636 253.064 8.70597C253.729 8.27131 254.504 8.05398 255.391 8.05398C256.081 8.05398 256.703 8.18182 257.257 8.4375C257.811 8.69318 258.265 9.05114 258.619 9.51136C258.972 9.97159 259.192 10.5085 259.277 11.1222H257.768C257.653 10.6747 257.398 10.2784 257.001 9.93324C256.609 9.58381 256.081 9.40909 255.416 9.40909C254.828 9.40909 254.313 9.5625 253.869 9.86932C253.43 10.1719 253.087 10.6001 252.84 11.1541C252.597 11.7038 252.476 12.3494 252.476 13.0909C252.476 13.8494 252.595 14.5099 252.834 15.0724C253.077 15.6349 253.418 16.0717 253.857 16.3828C254.3 16.6939 254.82 16.8494 255.416 16.8494C255.808 16.8494 256.164 16.7812 256.484 16.6449C256.803 16.5085 257.074 16.3125 257.295 16.0568C257.517 15.8011 257.675 15.4943 257.768 15.1364H259.277C259.192 15.7159 258.981 16.2379 258.644 16.7024C258.312 17.1626 257.871 17.5291 257.321 17.8018C256.776 18.0703 256.141 18.2045 255.416 18.2045ZM265.752 8.18182V9.46023H260.664V8.18182H265.752ZM262.147 5.82955H263.656V15.1875C263.656 15.6136 263.717 15.9332 263.841 16.1463C263.969 16.3551 264.131 16.4957 264.327 16.5682C264.527 16.6364 264.738 16.6705 264.96 16.6705C265.126 16.6705 265.262 16.6619 265.369 16.6449C265.475 16.6236 265.56 16.6065 265.624 16.5938L265.931 17.9489C265.829 17.9872 265.686 18.0256 265.503 18.0639C265.32 18.1065 265.087 18.1278 264.806 18.1278C264.38 18.1278 263.962 18.0362 263.553 17.853C263.148 17.6697 262.812 17.3906 262.543 17.0156C262.279 16.6406 262.147 16.1676 262.147 15.5966V5.82955Z" fill="black"/>
</svg>
