<svg width="110" height="25" viewBox="0 0 110 25" fill="none" xmlns="http://www.w3.org/2000/svg">
<path d="M6.68201 18.902C5.29534 18.902 4.03001 18.6593 2.88601 18.174C1.74201 17.6713 0.780006 16.8913 6.3926e-06 15.834L1.27401 14.95C1.91534 15.7127 2.67801 16.3107 3.56201 16.744C4.46334 17.16 5.51201 17.368 6.70801 17.368C7.52267 17.368 8.26801 17.2467 8.94401 17.004C9.63734 16.7613 10.192 16.3887 10.608 15.886C11.024 15.3833 11.232 14.7593 11.232 14.014C11.232 13.3553 11.0933 12.7833 10.816 12.298C10.556 11.8127 10.036 11.388 9.25601 11.024C8.47601 10.66 7.31467 10.3393 5.77201 10.062C2.37467 9.42067 0.676006 7.73933 0.676006 5.018C0.676006 4.03 0.918673 3.16333 1.40401 2.418C1.88934 1.65533 2.56534 1.066 3.43201 0.649999C4.29867 0.216666 5.30401 -7.15256e-07 6.44801 -7.15256e-07C7.66134 -7.15256e-07 8.75334 0.233999 9.72401 0.702C10.6947 1.15267 11.5787 1.75933 12.376 2.522L11.232 3.614C10.5387 3.00733 9.81067 2.522 9.04801 2.158C8.28534 1.77667 7.41001 1.586 6.42201 1.586C5.24334 1.586 4.26401 1.88067 3.48401 2.47C2.72134 3.042 2.34001 3.874 2.34001 4.966C2.34001 5.91933 2.64334 6.69067 3.25001 7.28C3.87401 7.86933 4.99201 8.31133 6.60401 8.606C8.84001 9.00467 10.4433 9.62867 11.414 10.478C12.3847 11.3273 12.87 12.4973 12.87 13.988C12.87 15.0107 12.5927 15.8947 12.038 16.64C11.5007 17.368 10.764 17.9313 9.82801 18.33C8.89201 18.7113 7.84334 18.902 6.68201 18.902ZM20.4984 18.876C19.181 18.876 18.115 18.4513 17.3004 17.602C16.4857 16.7527 16.0784 15.5393 16.0784 13.962V6.136H17.6384V13.754C17.6384 14.9673 17.9244 15.8773 18.4964 16.484C19.0857 17.0907 19.8397 17.394 20.7584 17.394C21.8157 17.394 22.6737 17.0647 23.3324 16.406C23.991 15.7473 24.3204 14.9413 24.3204 13.988V6.136H25.9064V18.564H24.4244L24.3724 16.822C24.0084 17.394 23.4884 17.8793 22.8124 18.278C22.1364 18.6767 21.365 18.876 20.4984 18.876ZM34.6568 24.206C32.3515 24.206 30.6181 23.3047 29.4568 21.502L30.7568 20.644C31.6235 22.0133 32.9235 22.698 34.6568 22.698C35.9395 22.698 36.9188 22.2733 37.5948 21.424C38.2708 20.592 38.6088 19.3353 38.6088 17.654V15.418C38.1755 16.094 37.6121 16.6313 36.9188 17.03C36.2255 17.4113 35.4368 17.602 34.5528 17.602C33.4955 17.602 32.5508 17.3593 31.7188 16.874C30.9041 16.3887 30.2541 15.704 29.7688 14.82C29.3008 13.936 29.0668 12.896 29.0668 11.7C29.0668 10.504 29.3008 9.47267 29.7688 8.606C30.2541 7.722 30.9041 7.03733 31.7188 6.552C32.5508 6.06667 33.4955 5.824 34.5528 5.824C35.4541 5.824 36.2601 6.032 36.9708 6.448C37.6815 6.84667 38.2535 7.40133 38.6868 8.112L38.7128 6.136H40.1688V17.654C40.1688 19.9073 39.6575 21.5627 38.6348 22.62C37.6295 23.6773 36.3035 24.206 34.6568 24.206ZM34.6308 16.146C35.4108 16.146 36.1041 15.964 36.7108 15.6C37.3175 15.2187 37.7941 14.6987 38.1408 14.04C38.4875 13.364 38.6608 12.584 38.6608 11.7C38.6608 10.816 38.4875 10.0447 38.1408 9.386C37.7941 8.72733 37.3175 8.216 36.7108 7.852C36.1041 7.47067 35.4108 7.28 34.6308 7.28C33.8681 7.28 33.1835 7.47067 32.5768 7.852C31.9875 8.216 31.5195 8.72733 31.1728 9.386C30.8261 10.0447 30.6528 10.816 30.6528 11.7C30.6528 12.584 30.8261 13.364 31.1728 14.04C31.5195 14.6987 31.9875 15.2187 32.5768 15.6C33.1835 15.964 33.8681 16.146 34.6308 16.146ZM47.3663 18.824C46.153 18.8413 45.165 18.564 44.4023 17.992C43.657 17.42 43.2843 16.588 43.2843 15.496C43.2843 14.664 43.5617 13.936 44.1163 13.312C44.6883 12.688 45.4077 12.2027 46.2743 11.856C47.1583 11.492 48.0683 11.31 49.0043 11.31C50.287 11.31 51.301 11.6133 52.0463 12.22V10.088C52.0463 8.92667 51.8037 8.17267 51.3183 7.826C50.833 7.462 50.053 7.28 48.9783 7.28C48.285 7.28 47.5137 7.41 46.6643 7.67C45.815 7.91267 45.0957 8.22467 44.5063 8.606L43.7523 7.358C44.4283 6.92467 45.243 6.56067 46.1963 6.266C47.167 5.97133 48.0943 5.824 48.9783 5.824C50.5557 5.824 51.717 6.12733 52.4623 6.734C53.2077 7.34067 53.5803 8.45867 53.5803 10.088V16.978C53.5803 17.3073 53.667 17.498 53.8403 17.55C54.031 17.5847 54.4383 17.5413 55.0623 17.42V18.538C54.889 18.6073 54.655 18.668 54.3603 18.72C54.0657 18.7893 53.7883 18.824 53.5283 18.824C52.939 18.824 52.5577 18.7027 52.3843 18.46C52.211 18.2173 52.107 17.758 52.0723 17.082C51.535 17.6713 50.8243 18.1047 49.9403 18.382C49.0563 18.6593 48.1983 18.8067 47.3663 18.824ZM47.4443 17.394C48.2763 17.3767 49.0477 17.2467 49.7583 17.004C50.4863 16.7613 51.0583 16.4147 51.4743 15.964C51.9077 15.496 52.107 14.9327 52.0723 14.274C52.0203 13.7367 51.7257 13.338 51.1883 13.078C50.651 12.8007 49.9577 12.6707 49.1083 12.688C48.3977 12.688 47.713 12.8093 47.0543 13.052C46.3957 13.2947 45.8583 13.6327 45.4423 14.066C45.0437 14.482 44.8443 14.9673 44.8443 15.522C44.8443 16.1633 45.087 16.64 45.5723 16.952C46.0577 17.2467 46.6817 17.394 47.4443 17.394ZM60.1746 18.59L56.2746 6.136H57.8346L60.8246 16.042L63.7626 6.136H65.0366L67.9746 16.042L70.9646 6.136H72.5246L68.6246 18.59H67.3506L64.4126 8.658L61.4226 18.59H60.1746ZM78.5206 18.824C77.3073 18.8413 76.3193 18.564 75.5566 17.992C74.8113 17.42 74.4386 16.588 74.4386 15.496C74.4386 14.664 74.7159 13.936 75.2706 13.312C75.8426 12.688 76.5619 12.2027 77.4286 11.856C78.3126 11.492 79.2226 11.31 80.1586 11.31C81.4413 11.31 82.4553 11.6133 83.2006 12.22V10.088C83.2006 8.92667 82.9579 8.17267 82.4726 7.826C81.9873 7.462 81.2073 7.28 80.1326 7.28C79.4393 7.28 78.6679 7.41 77.8186 7.67C76.9693 7.91267 76.2499 8.22467 75.6606 8.606L74.9066 7.358C75.5826 6.92467 76.3973 6.56067 77.3506 6.266C78.3213 5.97133 79.2486 5.824 80.1326 5.824C81.7099 5.824 82.8713 6.12733 83.6166 6.734C84.3619 7.34067 84.7346 8.45867 84.7346 10.088V16.978C84.7346 17.3073 84.8213 17.498 84.9946 17.55C85.1853 17.5847 85.5926 17.5413 86.2166 17.42V18.538C86.0433 18.6073 85.8093 18.668 85.5146 18.72C85.2199 18.7893 84.9426 18.824 84.6826 18.824C84.0933 18.824 83.7119 18.7027 83.5386 18.46C83.3653 18.2173 83.2613 17.758 83.2266 17.082C82.6893 17.6713 81.9786 18.1047 81.0946 18.382C80.2106 18.6593 79.3526 18.8067 78.5206 18.824ZM78.5986 17.394C79.4306 17.3767 80.2019 17.2467 80.9126 17.004C81.6406 16.7613 82.2126 16.4147 82.6286 15.964C83.0619 15.496 83.2613 14.9327 83.2266 14.274C83.1746 13.7367 82.8799 13.338 82.3426 13.078C81.8053 12.8007 81.1119 12.6707 80.2626 12.688C79.5519 12.688 78.8673 12.8093 78.2086 13.052C77.5499 13.2947 77.0126 13.6327 76.5966 14.066C76.1979 14.482 75.9986 14.9673 75.9986 15.522C75.9986 16.1633 76.2413 16.64 76.7266 16.952C77.2119 17.2467 77.8359 17.394 78.5986 17.394ZM89.1067 18.59V6.136H90.6147L90.6927 8.294C91.0393 7.566 91.5853 6.97667 92.3307 6.526C93.0933 6.058 93.934 5.824 94.8527 5.824C95.0953 5.824 95.338 5.84133 95.5807 5.876C95.8407 5.89333 96.0573 5.928 96.2307 5.98V7.514C96.0747 7.47933 95.8493 7.44467 95.5547 7.41C95.2773 7.37533 94.9913 7.358 94.6967 7.358C93.9687 7.358 93.3013 7.53133 92.6947 7.878C92.088 8.20733 91.6027 8.658 91.2387 9.23C90.892 9.78467 90.7187 10.4173 90.7187 11.128V18.59H89.1067ZM102.21 18.824C100.997 18.8413 100.009 18.564 99.2461 17.992C98.5007 17.42 98.1281 16.588 98.1281 15.496C98.1281 14.664 98.4054 13.936 98.9601 13.312C99.5321 12.688 100.251 12.2027 101.118 11.856C102.002 11.492 102.912 11.31 103.848 11.31C105.131 11.31 106.145 11.6133 106.89 12.22V10.088C106.89 8.92667 106.647 8.17267 106.162 7.826C105.677 7.462 104.897 7.28 103.822 7.28C103.129 7.28 102.357 7.41 101.508 7.67C100.659 7.91267 99.9394 8.22467 99.3501 8.606L98.5961 7.358C99.2721 6.92467 100.087 6.56067 101.04 6.266C102.011 5.97133 102.938 5.824 103.822 5.824C105.399 5.824 106.561 6.12733 107.306 6.734C108.051 7.34067 108.424 8.45867 108.424 10.088V16.978C108.424 17.3073 108.511 17.498 108.684 17.55C108.875 17.5847 109.282 17.5413 109.906 17.42V18.538C109.733 18.6073 109.499 18.668 109.204 18.72C108.909 18.7893 108.632 18.824 108.372 18.824C107.783 18.824 107.401 18.7027 107.228 18.46C107.055 18.2173 106.951 17.758 106.916 17.082C106.379 17.6713 105.668 18.1047 104.784 18.382C103.9 18.6593 103.042 18.8067 102.21 18.824ZM102.288 17.394C103.12 17.3767 103.891 17.2467 104.602 17.004C105.33 16.7613 105.902 16.4147 106.318 15.964C106.751 15.496 106.951 14.9327 106.916 14.274C106.864 13.7367 106.569 13.338 106.032 13.078C105.495 12.8007 104.801 12.6707 103.952 12.688C103.241 12.688 102.557 12.8093 101.898 13.052C101.239 13.2947 100.702 13.6327 100.286 14.066C99.8874 14.482 99.6881 14.9673 99.6881 15.522C99.6881 16.1633 99.9307 16.64 100.416 16.952C100.901 17.2467 101.525 17.394 102.288 17.394Z" fill="black"/>
</svg>
