<svg width="193" height="80" viewBox="0 0 193 80" fill="none" xmlns="http://www.w3.org/2000/svg">
<path d="M20.02 64.88C16.5367 64.88 13.42 64.055 10.67 62.405C7.95667 60.755 5.83 58.4267 4.29 55.42C2.75 52.3767 1.98 48.82 1.98 44.75C1.98 40.6433 2.75 37.0867 4.29 34.08C5.83 31.0367 7.95667 28.69 10.67 27.04C13.42 25.3533 16.5367 24.51 20.02 24.51C23.2467 24.51 26.1433 25.225 28.71 26.655C31.2767 28.085 33.3483 30.0833 34.925 32.65L29.26 35.95C28.2333 34.3 26.9317 33.0167 25.355 32.1C23.815 31.1833 22.0367 30.725 20.02 30.725C17.7467 30.725 15.7483 31.3117 14.025 32.485C12.3017 33.6217 10.9633 35.2533 10.01 37.38C9.09333 39.47 8.635 41.9267 8.635 44.75C8.635 47.5367 9.09333 49.9933 10.01 52.12C10.9633 54.21 12.3017 55.8417 14.025 57.015C15.7483 58.1517 17.7467 58.72 20.02 58.72C22.0367 58.72 23.815 58.2617 25.355 57.345C26.9317 56.4283 28.2333 55.145 29.26 53.495L34.925 56.795C33.3483 59.325 31.2767 61.305 28.71 62.735C26.1433 64.165 23.2467 64.88 20.02 64.88ZM51.6931 64.605C49.2731 64.605 47.0915 64.0367 45.1481 62.9C43.2415 61.7267 41.7198 60.1133 40.5831 58.06C39.4831 55.97 38.9331 53.5317 38.9331 50.745C38.9331 47.9583 39.4831 45.5383 40.5831 43.485C41.7198 41.395 43.2415 39.7817 45.1481 38.645C47.0915 37.4717 49.2731 36.885 51.6931 36.885C54.1865 36.885 56.3865 37.4717 58.2931 38.645C60.2365 39.7817 61.7581 41.395 62.8581 43.485C63.9581 45.5383 64.5081 47.9583 64.5081 50.745C64.5081 53.5317 63.9581 55.97 62.8581 58.06C61.7581 60.1133 60.2365 61.7267 58.2931 62.9C56.3865 64.0367 54.1865 64.605 51.6931 64.605ZM51.6931 58.995C53.6365 58.995 55.2131 58.28 56.4231 56.85C57.6698 55.42 58.2931 53.385 58.2931 50.745C58.2931 48.105 57.6698 46.07 56.4231 44.64C55.2131 43.21 53.6365 42.495 51.6931 42.495C49.7865 42.495 48.2281 43.21 47.0181 44.64C45.8081 46.07 45.2031 48.105 45.2031 50.745C45.2031 53.385 45.8081 55.42 47.0181 56.85C48.2281 58.28 49.7865 58.995 51.6931 58.995ZM69.8491 64V37.545H75.4041L75.7341 40.68C76.4675 39.6533 77.4391 38.7733 78.6491 38.04C79.8591 37.27 81.2891 36.885 82.9391 36.885C85.6891 36.885 87.9258 37.765 89.6491 39.525C91.4091 41.285 92.2891 43.87 92.2891 47.28V64H86.0741V48.765C86.0741 46.675 85.6525 45.1167 84.8091 44.09C83.9658 43.0267 82.8291 42.495 81.3991 42.495C79.8225 42.495 78.5391 43.045 77.5491 44.145C76.5591 45.2083 76.0641 46.8033 76.0641 48.93V64H69.8491ZM108.829 64.605C106.225 64.605 104.227 64.1283 102.834 63.175C101.477 62.2217 100.799 60.315 100.799 57.455V42.88H95.7387V37.545H100.799V28.25H106.959V37.545H114.274V42.88H106.959V55.86C106.959 57.1067 107.252 57.95 107.839 58.39C108.462 58.83 109.342 59.05 110.479 59.05C111.175 59.05 111.872 58.94 112.569 58.72C113.302 58.5 113.87 58.28 114.274 58.06V63.725C113.614 63.9817 112.789 64.1833 111.799 64.33C110.809 64.5133 109.819 64.605 108.829 64.605ZM127.846 64.385C124.986 64.495 122.621 63.8717 120.751 62.515C118.917 61.1583 118.001 59.1967 118.001 56.63C118.001 54.76 118.569 53.165 119.706 51.845C120.842 50.525 122.309 49.4983 124.106 48.765C125.902 47.995 127.754 47.5917 129.661 47.555C130.614 47.4817 131.512 47.555 132.356 47.775C133.199 47.995 133.951 48.3067 134.611 48.71V46.4C134.611 44.6767 134.244 43.5583 133.511 43.045C132.777 42.5317 131.696 42.275 130.266 42.275C128.726 42.275 127.094 42.5683 125.371 43.155C123.684 43.705 122.236 44.4017 121.026 45.245L118.221 40.46C119.724 39.5067 121.539 38.6817 123.666 37.985C125.792 37.2517 127.992 36.885 130.266 36.885C133.676 36.885 136.242 37.5817 137.966 38.975C139.689 40.3317 140.551 42.8067 140.551 46.4V58.555C140.551 59.325 140.716 59.765 141.046 59.875C141.412 59.985 142.219 59.8567 143.466 59.49V63.395C142.916 63.6517 142.219 63.8717 141.376 64.055C140.569 64.275 139.689 64.385 138.736 64.385C137.599 64.385 136.719 64.2017 136.096 63.835C135.509 63.4317 135.087 62.7717 134.831 61.855C133.914 62.625 132.851 63.23 131.641 63.67C130.431 64.0733 129.166 64.3117 127.846 64.385ZM127.736 58.995C129.789 58.9217 131.476 58.5183 132.796 57.785C134.152 57.0517 134.794 56.0067 134.721 54.65C134.684 53.77 134.226 53.165 133.346 52.835C132.502 52.505 131.439 52.3767 130.156 52.45C128.359 52.4867 126.874 52.945 125.701 53.825C124.527 54.6683 123.959 55.6217 123.996 56.685C124.069 58.335 125.316 59.105 127.736 58.995ZM158.846 64.605C156.426 64.605 154.245 64.0367 152.301 62.9C150.395 61.7267 148.873 60.1133 147.736 58.06C146.636 55.97 146.086 53.5317 146.086 50.745C146.086 47.9583 146.636 45.5383 147.736 43.485C148.873 41.395 150.395 39.7817 152.301 38.645C154.245 37.4717 156.426 36.885 158.846 36.885C161.01 36.885 162.971 37.325 164.731 38.205C166.528 39.085 167.995 40.35 169.131 42L164.181 45.63C163.045 43.54 161.266 42.495 158.846 42.495C156.94 42.495 155.381 43.21 154.171 44.64C152.961 46.07 152.356 48.105 152.356 50.745C152.356 53.385 152.961 55.42 154.171 56.85C155.381 58.28 156.94 58.995 158.846 58.995C161.23 58.995 163.026 57.9683 164.236 55.915L169.131 59.49C167.995 61.1033 166.528 62.3683 164.731 63.285C162.971 64.165 161.01 64.605 158.846 64.605ZM185.313 64.605C182.71 64.605 180.711 64.1283 179.318 63.175C177.961 62.2217 177.283 60.315 177.283 57.455V42.88H172.223V37.545H177.283V28.25H183.443V37.545H190.758V42.88H183.443V55.86C183.443 57.1067 183.736 57.95 184.323 58.39C184.946 58.83 185.826 59.05 186.963 59.05C187.66 59.05 188.356 58.94 189.053 58.72C189.786 58.5 190.355 58.28 190.758 58.06V63.725C190.098 63.9817 189.273 64.1833 188.283 64.33C187.293 64.5133 186.303 64.605 185.313 64.605Z" fill="black"/>
</svg>
